M48
; DRILL file {KiCad 8.0.8} date 2025-02-24T20:58:25+0100
; FORMAT={-:-/ absolute / inch / decimal}
; #@! TF.CreationDate,2025-02-24T20:58:25+01:00
; #@! TF.GenerationSoftware,Kicad,Pcbnew,8.0.8
; #@! TF.FileFunction,Plated,1,2,PTH
FMAT,2
INCH
; #@! TA.AperFunction,Plated,PTH,ComponentDrill
T1C0.0197
; #@! TA.AperFunction,Plated,PTH,ComponentDrill
T2C0.0394
; #@! TA.AperFunction,Plated,PTH,ComponentDrill
T3C0.0433
; #@! TA.AperFunction,Plated,PTH,ComponentDrill
T4C0.1260
%
G90
G05
T1
X4.1655Y-3.08
X4.1655Y-4.88
X4.1932Y-3.0132
X4.1932Y-3.1468
X4.1932Y-4.8132
X4.1932Y-4.9468
X4.26Y-2.9855
X4.26Y-3.1745
X4.26Y-4.7855
X4.26Y-4.9745
X4.3268Y-3.0132
X4.3268Y-3.1468
X4.3268Y-4.8132
X4.3268Y-4.9468
X4.3545Y-3.08
X4.3545Y-4.88
X6.2055Y-3.08
X6.2055Y-4.88
X6.2332Y-3.0132
X6.2332Y-3.1468
X6.2332Y-4.8132
X6.2332Y-4.9468
X6.3Y-2.9855
X6.3Y-3.1745
X6.3Y-4.7855
X6.3Y-4.9745
X6.3668Y-3.0132
X6.3668Y-3.1468
X6.3668Y-4.8132
X6.3668Y-4.9468
X6.3945Y-3.08
X6.3945Y-4.88
T2
X4.57Y-5.15
X4.57Y-5.25
X4.67Y-5.15
X4.67Y-5.25
X4.77Y-5.15
X4.77Y-5.25
X4.8Y-3.23
X4.8Y-3.3391
X4.8Y-3.4481
X4.8Y-3.5572
X4.8Y-3.6662
X4.8Y-3.7753
X4.8Y-3.8843
X4.8Y-3.9934
X4.8Y-4.1024
X4.8Y-4.2115
X4.8Y-4.3206
X4.8Y-4.4296
X4.87Y-5.15
X4.87Y-5.25
X4.9118Y-3.1755
X4.9118Y-3.2845
X4.9118Y-3.3936
X4.9118Y-3.5026
X4.9118Y-3.6117
X4.9118Y-3.7207
X4.9118Y-3.8298
X4.9118Y-3.9389
X4.9118Y-4.0479
X4.9118Y-4.157
X4.9118Y-4.266
X4.9118Y-4.3751
X4.9118Y-4.4841
X4.97Y-5.15
X4.97Y-5.25
X5.37Y-2.78
X5.37Y-2.88
X5.37Y-2.98
X5.37Y-3.08
X5.37Y-3.18
X5.37Y-3.28
X5.37Y-3.38
X5.37Y-3.48
X5.37Y-3.58
X5.37Y-3.68
X5.37Y-3.78
X5.37Y-3.88
X5.37Y-3.98
X5.37Y-4.08
X5.37Y-4.18
X5.37Y-4.28
X5.37Y-4.38
X5.37Y-4.48
X5.37Y-4.58
X5.37Y-4.68
X5.37Y-4.78
X5.37Y-4.88
X5.37Y-4.98
X5.37Y-5.08
X5.37Y-5.18
X5.47Y-2.78
X5.47Y-2.88
X5.47Y-2.98
X5.47Y-3.08
X5.47Y-3.18
X5.47Y-3.28
X5.47Y-3.38
X5.47Y-3.48
X5.47Y-3.58
X5.47Y-3.68
X5.47Y-3.78
X5.47Y-3.88
X5.47Y-3.98
X5.47Y-4.08
X5.47Y-4.18
X5.47Y-4.28
X5.47Y-4.38
X5.47Y-4.48
X5.47Y-4.58
X5.47Y-4.68
X5.47Y-4.78
X5.47Y-4.88
X5.47Y-4.98
X5.47Y-5.08
X5.47Y-5.18
X5.85Y-2.78
X5.85Y-2.88
X5.85Y-2.98
X5.85Y-3.08
X5.85Y-3.18
X5.85Y-3.28
X5.85Y-3.38
X5.85Y-3.48
X5.85Y-3.58
X5.85Y-3.68
X5.85Y-3.78
X5.85Y-3.88
X5.85Y-3.98
X5.85Y-4.08
X5.85Y-4.18
X5.85Y-4.28
X5.85Y-4.38
X5.85Y-4.48
X5.85Y-4.58
X5.85Y-4.68
X5.85Y-4.78
X5.85Y-4.88
X5.85Y-4.98
X5.85Y-5.08
X5.85Y-5.18
X5.95Y-2.78
X5.95Y-2.88
X5.95Y-2.98
X5.95Y-3.08
X5.95Y-3.18
X5.95Y-3.28
X5.95Y-3.38
X5.95Y-3.48
X5.95Y-3.58
X5.95Y-3.68
X5.95Y-3.78
X5.95Y-3.88
X5.95Y-3.98
X5.95Y-4.08
X5.95Y-4.18
X5.95Y-4.28
X5.95Y-4.38
X5.95Y-4.48
X5.95Y-4.58
X5.95Y-4.68
X5.95Y-4.78
X5.95Y-4.88
X5.95Y-4.98
X5.95Y-5.08
X5.95Y-5.18
T3
X6.22Y-3.79
X6.22Y-4.29
T4
X4.26Y-3.08
X4.26Y-4.88
X4.8559Y-2.9026
X4.8559Y-4.757
X6.3Y-3.08
X6.3Y-4.88
M30
