%TF.GenerationSoftware,KiCad,Pcbnew,8.0.8*%
%TF.CreationDate,2025-02-24T20:58:23+01:00*%
%TF.ProjectId,TDSystemsVikingSCSICabkit,54445379-7374-4656-9d73-56696b696e67,rev?*%
%TF.SameCoordinates,Original*%
%TF.FileFunction,Copper,L2,Bot*%
%TF.FilePolarity,Positive*%
%FSLAX46Y46*%
G04 Gerber Fmt 4.6, Leading zero omitted, Abs format (unit mm)*
G04 Created by KiCad (PCBNEW 8.0.8) date 2025-02-24 20:58:23*
%MOMM*%
%LPD*%
G01*
G04 APERTURE LIST*
G04 Aperture macros list*
%AMRoundRect*
0 Rectangle with rounded corners*
0 $1 Rounding radius*
0 $2 $3 $4 $5 $6 $7 $8 $9 X,Y pos of 4 corners*
0 Add a 4 corners polygon primitive as box body*
4,1,4,$2,$3,$4,$5,$6,$7,$8,$9,$2,$3,0*
0 Add four circle primitives for the rounded corners*
1,1,$1+$1,$2,$3*
1,1,$1+$1,$4,$5*
1,1,$1+$1,$6,$7*
1,1,$1+$1,$8,$9*
0 Add four rect primitives between the rounded corners*
20,1,$1+$1,$2,$3,$4,$5,0*
20,1,$1+$1,$4,$5,$6,$7,0*
20,1,$1+$1,$6,$7,$8,$9,0*
20,1,$1+$1,$8,$9,$2,$3,0*%
G04 Aperture macros list end*
%TA.AperFunction,ComponentPad*%
%ADD10C,4.000000*%
%TD*%
%TA.AperFunction,ComponentPad*%
%ADD11R,1.600000X1.600000*%
%TD*%
%TA.AperFunction,ComponentPad*%
%ADD12C,1.600000*%
%TD*%
%TA.AperFunction,ComponentPad*%
%ADD13C,0.800000*%
%TD*%
%TA.AperFunction,ComponentPad*%
%ADD14C,6.400000*%
%TD*%
%TA.AperFunction,ComponentPad*%
%ADD15RoundRect,0.250000X-0.600000X-0.600000X0.600000X-0.600000X0.600000X0.600000X-0.600000X0.600000X0*%
%TD*%
%TA.AperFunction,ComponentPad*%
%ADD16C,1.700000*%
%TD*%
%TA.AperFunction,ComponentPad*%
%ADD17RoundRect,0.250000X-0.600000X0.600000X-0.600000X-0.600000X0.600000X-0.600000X0.600000X0.600000X0*%
%TD*%
%TA.AperFunction,ComponentPad*%
%ADD18R,2.200000X2.200000*%
%TD*%
%TA.AperFunction,ComponentPad*%
%ADD19O,2.200000X2.200000*%
%TD*%
%TA.AperFunction,ComponentPad*%
%ADD20RoundRect,0.250000X0.600000X0.600000X-0.600000X0.600000X-0.600000X-0.600000X0.600000X-0.600000X0*%
%TD*%
%TA.AperFunction,Conductor*%
%ADD21C,1.200000*%
%TD*%
%TA.AperFunction,Conductor*%
%ADD22C,0.200000*%
%TD*%
%TA.AperFunction,Conductor*%
%ADD23C,1.000000*%
%TD*%
G04 APERTURE END LIST*
D10*
%TO.P,J3,0,PAD*%
%TO.N,/CHASSI*%
X123340000Y-73727000D03*
X123340000Y-120827000D03*
D11*
%TO.P,J3,1,1*%
X124760000Y-80657000D03*
D12*
%TO.P,J3,2,2*%
%TO.N,Net-(J1-Pin_20)*%
X124760000Y-83427000D03*
%TO.P,J3,3,3*%
%TO.N,Net-(J1-Pin_22)*%
X124760000Y-86197000D03*
%TO.P,J3,4,4*%
%TO.N,unconnected-(J3-Pad4)*%
X124760000Y-88967000D03*
%TO.P,J3,5,5*%
%TO.N,unconnected-(J3-Pad5)*%
X124760000Y-91737000D03*
%TO.P,J3,6,6*%
%TO.N,unconnected-(J3-Pad6)*%
X124760000Y-94507000D03*
%TO.P,J3,7,7*%
%TO.N,Net-(J1-Pin_19)*%
X124760000Y-97277000D03*
%TO.P,J3,8,8*%
%TO.N,unconnected-(J3-Pad8)*%
X124760000Y-100047000D03*
%TO.P,J3,9,9*%
%TO.N,unconnected-(J3-Pad9)*%
X124760000Y-102817000D03*
%TO.P,J3,10,10*%
%TO.N,unconnected-(J3-Pad10)*%
X124760000Y-105587000D03*
%TO.P,J3,11,11*%
%TO.N,unconnected-(J3-Pad11)*%
X124760000Y-108357000D03*
%TO.P,J3,12,12*%
%TO.N,unconnected-(J3-Pad12)*%
X124760000Y-111127000D03*
%TO.P,J3,13,13*%
%TO.N,unconnected-(J3-Pad13)*%
X124760000Y-113897000D03*
%TO.P,J3,14,P14*%
%TO.N,unconnected-(J3-P14-Pad14)*%
X121920000Y-82042000D03*
%TO.P,J3,15,P15*%
%TO.N,unconnected-(J3-P15-Pad15)*%
X121920000Y-84812000D03*
%TO.P,J3,16,P16*%
%TO.N,unconnected-(J3-P16-Pad16)*%
X121920000Y-87582000D03*
%TO.P,J3,17,P17*%
%TO.N,unconnected-(J3-P17-Pad17)*%
X121920000Y-90352000D03*
%TO.P,J3,18,P18*%
%TO.N,unconnected-(J3-P18-Pad18)*%
X121920000Y-93122000D03*
%TO.P,J3,19,P19*%
%TO.N,unconnected-(J3-P19-Pad19)*%
X121920000Y-95892000D03*
%TO.P,J3,20,P20*%
%TO.N,unconnected-(J3-P20-Pad20)*%
X121920000Y-98662000D03*
%TO.P,J3,21,P21*%
%TO.N,unconnected-(J3-P21-Pad21)*%
X121920000Y-101432000D03*
%TO.P,J3,22,P22*%
%TO.N,unconnected-(J3-P22-Pad22)*%
X121920000Y-104202000D03*
%TO.P,J3,23,P23*%
%TO.N,unconnected-(J3-P23-Pad23)*%
X121920000Y-106972000D03*
%TO.P,J3,24,P24*%
%TO.N,unconnected-(J3-P24-Pad24)*%
X121920000Y-109742000D03*
%TO.P,J3,25,P25*%
%TO.N,unconnected-(J3-P25-Pad25)*%
X121920000Y-112512000D03*
%TD*%
D13*
%TO.P,H4,1,1*%
%TO.N,/CHASSI*%
X105804000Y-123952000D03*
X106506944Y-122254944D03*
X106506944Y-125649056D03*
X108204000Y-121552000D03*
D14*
X108204000Y-123952000D03*
D13*
X108204000Y-126352000D03*
X109901056Y-122254944D03*
X109901056Y-125649056D03*
X110604000Y-123952000D03*
%TD*%
%TO.P,H2,1,1*%
%TO.N,/CHASSI*%
X157620000Y-78232000D03*
X158322944Y-76534944D03*
X158322944Y-79929056D03*
X160020000Y-75832000D03*
D14*
X160020000Y-78232000D03*
D13*
X160020000Y-80632000D03*
X161717056Y-76534944D03*
X161717056Y-79929056D03*
X162420000Y-78232000D03*
%TD*%
%TO.P,H3,1,1*%
%TO.N,/CHASSI*%
X105804000Y-78232000D03*
X106506944Y-76534944D03*
X106506944Y-79929056D03*
X108204000Y-75832000D03*
D14*
X108204000Y-78232000D03*
D13*
X108204000Y-80632000D03*
X109901056Y-76534944D03*
X109901056Y-79929056D03*
X110604000Y-78232000D03*
%TD*%
D15*
%TO.P,J2,1,Pin_1*%
%TO.N,Net-(J1-Pin_1)*%
X148590000Y-70612000D03*
D16*
%TO.P,J2,2,Pin_2*%
%TO.N,Net-(J1-Pin_2)*%
X151130000Y-70612000D03*
%TO.P,J2,3,Pin_3*%
%TO.N,Net-(J1-Pin_3)*%
X148590000Y-73152000D03*
%TO.P,J2,4,Pin_4*%
%TO.N,Net-(J1-Pin_4)*%
X151130000Y-73152000D03*
%TO.P,J2,5,Pin_5*%
%TO.N,Net-(J1-Pin_5)*%
X148590000Y-75692000D03*
%TO.P,J2,6,Pin_6*%
%TO.N,Net-(J1-Pin_6)*%
X151130000Y-75692000D03*
%TO.P,J2,7,Pin_7*%
%TO.N,Net-(J1-Pin_7)*%
X148590000Y-78232000D03*
%TO.P,J2,8,Pin_8*%
%TO.N,Net-(J1-Pin_8)*%
X151130000Y-78232000D03*
%TO.P,J2,9,Pin_9*%
%TO.N,Net-(J1-Pin_9)*%
X148590000Y-80772000D03*
%TO.P,J2,10,Pin_10*%
%TO.N,Net-(J1-Pin_10)*%
X151130000Y-80772000D03*
%TO.P,J2,11,Pin_11*%
%TO.N,Net-(J1-Pin_11)*%
X148590000Y-83312000D03*
%TO.P,J2,12,Pin_12*%
%TO.N,Net-(J1-Pin_12)*%
X151130000Y-83312000D03*
%TO.P,J2,13,Pin_13*%
%TO.N,Net-(J1-Pin_13)*%
X148590000Y-85852000D03*
%TO.P,J2,14,Pin_14*%
%TO.N,Net-(J1-Pin_14)*%
X151130000Y-85852000D03*
%TO.P,J2,15,Pin_15*%
%TO.N,Net-(J1-Pin_15)*%
X148590000Y-88392000D03*
%TO.P,J2,16,Pin_16*%
%TO.N,Net-(J1-Pin_16)*%
X151130000Y-88392000D03*
%TO.P,J2,17,Pin_17*%
%TO.N,Net-(J1-Pin_17)*%
X148590000Y-90932000D03*
%TO.P,J2,18,Pin_18*%
%TO.N,Net-(J1-Pin_18)*%
X151130000Y-90932000D03*
%TO.P,J2,19,Pin_19*%
%TO.N,Net-(J1-Pin_19)*%
X148590000Y-93472000D03*
%TO.P,J2,20,Pin_20*%
X151130000Y-93472000D03*
%TO.P,J2,21,Pin_21*%
X148590000Y-96012000D03*
%TO.P,J2,22,Pin_22*%
X151130000Y-96012000D03*
%TO.P,J2,23,Pin_23*%
X148590000Y-98552000D03*
%TO.P,J2,24,Pin_24*%
X151130000Y-98552000D03*
%TO.P,J2,25,Pin_25*%
%TO.N,unconnected-(J2-Pin_25-Pad25)*%
X148590000Y-101092000D03*
%TO.P,J2,26,Pin_26*%
%TO.N,Net-(D1-K)*%
X151130000Y-101092000D03*
%TO.P,J2,27,Pin_27*%
%TO.N,Net-(J1-Pin_19)*%
X148590000Y-103632000D03*
%TO.P,J2,28,Pin_28*%
X151130000Y-103632000D03*
%TO.P,J2,29,Pin_29*%
X148590000Y-106172000D03*
%TO.P,J2,30,Pin_30*%
X151130000Y-106172000D03*
%TO.P,J2,31,Pin_31*%
%TO.N,Net-(J1-Pin_31)*%
X148590000Y-108712000D03*
%TO.P,J2,32,Pin_32*%
%TO.N,Net-(J1-Pin_32)*%
X151130000Y-108712000D03*
%TO.P,J2,33,Pin_33*%
%TO.N,Net-(J1-Pin_33)*%
X148590000Y-111252000D03*
%TO.P,J2,34,Pin_34*%
%TO.N,Net-(J1-Pin_34)*%
X151130000Y-111252000D03*
%TO.P,J2,35,Pin_35*%
%TO.N,Net-(J1-Pin_35)*%
X148590000Y-113792000D03*
%TO.P,J2,36,Pin_36*%
%TO.N,Net-(J1-Pin_36)*%
X151130000Y-113792000D03*
%TO.P,J2,37,Pin_37*%
%TO.N,Net-(J1-Pin_37)*%
X148590000Y-116332000D03*
%TO.P,J2,38,Pin_38*%
%TO.N,Net-(J1-Pin_38)*%
X151130000Y-116332000D03*
%TO.P,J2,39,Pin_39*%
%TO.N,Net-(J1-Pin_39)*%
X148590000Y-118872000D03*
%TO.P,J2,40,Pin_40*%
%TO.N,Net-(J1-Pin_40)*%
X151130000Y-118872000D03*
%TO.P,J2,41,Pin_41*%
%TO.N,Net-(J1-Pin_41)*%
X148590000Y-121412000D03*
%TO.P,J2,42,Pin_42*%
%TO.N,Net-(J1-Pin_42)*%
X151130000Y-121412000D03*
%TO.P,J2,43,Pin_43*%
%TO.N,Net-(J1-Pin_43)*%
X148590000Y-123952000D03*
%TO.P,J2,44,Pin_44*%
%TO.N,Net-(J1-Pin_44)*%
X151130000Y-123952000D03*
%TO.P,J2,45,Pin_45*%
%TO.N,Net-(J1-Pin_45)*%
X148590000Y-126492000D03*
%TO.P,J2,46,Pin_46*%
%TO.N,Net-(J1-Pin_46)*%
X151130000Y-126492000D03*
%TO.P,J2,47,Pin_47*%
%TO.N,Net-(J1-Pin_47)*%
X148590000Y-129032000D03*
%TO.P,J2,48,Pin_48*%
%TO.N,Net-(J1-Pin_48)*%
X151130000Y-129032000D03*
%TO.P,J2,49,Pin_49*%
%TO.N,Net-(J1-Pin_49)*%
X148590000Y-131572000D03*
%TO.P,J2,50,Pin_50*%
%TO.N,Net-(J1-Pin_50)*%
X151130000Y-131572000D03*
%TD*%
D17*
%TO.P,J4,1,Pin_1*%
%TO.N,Net-(J1-Pin_19)*%
X126238000Y-130810000D03*
D16*
%TO.P,J4,2,Pin_2*%
X126238000Y-133350000D03*
%TO.P,J4,3,Pin_3*%
%TO.N,Net-(J1-Pin_28)*%
X123698000Y-130810000D03*
%TO.P,J4,4,Pin_4*%
%TO.N,Net-(J1-Pin_30)*%
X123698000Y-133350000D03*
%TO.P,J4,5,Pin_5*%
%TO.N,Net-(D1-A)*%
X121158000Y-130810000D03*
%TO.P,J4,6,Pin_6*%
X121158000Y-133350000D03*
%TO.P,J4,7,Pin_7*%
%TO.N,unconnected-(J4-Pin_7-Pad7)*%
X118618000Y-130810000D03*
%TO.P,J4,8,Pin_8*%
%TO.N,unconnected-(J4-Pin_8-Pad8)*%
X118618000Y-133350000D03*
%TO.P,J4,9,Pin_9*%
%TO.N,Net-(J1-Pin_19)*%
X116078000Y-130810000D03*
%TO.P,J4,10,Pin_10*%
X116078000Y-133350000D03*
%TD*%
D13*
%TO.P,H1,1,1*%
%TO.N,/CHASSI*%
X157620000Y-123952000D03*
X158322944Y-122254944D03*
X158322944Y-125649056D03*
X160020000Y-121552000D03*
D14*
X160020000Y-123952000D03*
D13*
X160020000Y-126352000D03*
X161717056Y-122254944D03*
X161717056Y-125649056D03*
X162420000Y-123952000D03*
%TD*%
D18*
%TO.P,D1,1,K*%
%TO.N,Net-(D1-K)*%
X157988000Y-108966000D03*
D19*
%TO.P,D1,2,A*%
%TO.N,Net-(D1-A)*%
X157988000Y-96266000D03*
%TD*%
D20*
%TO.P,J1,1,Pin_1*%
%TO.N,Net-(J1-Pin_1)*%
X138938000Y-70612000D03*
D16*
%TO.P,J1,2,Pin_2*%
%TO.N,Net-(J1-Pin_2)*%
X136398000Y-70612000D03*
%TO.P,J1,3,Pin_3*%
%TO.N,Net-(J1-Pin_3)*%
X138938000Y-73152000D03*
%TO.P,J1,4,Pin_4*%
%TO.N,Net-(J1-Pin_4)*%
X136398000Y-73152000D03*
%TO.P,J1,5,Pin_5*%
%TO.N,Net-(J1-Pin_5)*%
X138938000Y-75692000D03*
%TO.P,J1,6,Pin_6*%
%TO.N,Net-(J1-Pin_6)*%
X136398000Y-75692000D03*
%TO.P,J1,7,Pin_7*%
%TO.N,Net-(J1-Pin_7)*%
X138938000Y-78232000D03*
%TO.P,J1,8,Pin_8*%
%TO.N,Net-(J1-Pin_8)*%
X136398000Y-78232000D03*
%TO.P,J1,9,Pin_9*%
%TO.N,Net-(J1-Pin_9)*%
X138938000Y-80772000D03*
%TO.P,J1,10,Pin_10*%
%TO.N,Net-(J1-Pin_10)*%
X136398000Y-80772000D03*
%TO.P,J1,11,Pin_11*%
%TO.N,Net-(J1-Pin_11)*%
X138938000Y-83312000D03*
%TO.P,J1,12,Pin_12*%
%TO.N,Net-(J1-Pin_12)*%
X136398000Y-83312000D03*
%TO.P,J1,13,Pin_13*%
%TO.N,Net-(J1-Pin_13)*%
X138938000Y-85852000D03*
%TO.P,J1,14,Pin_14*%
%TO.N,Net-(J1-Pin_14)*%
X136398000Y-85852000D03*
%TO.P,J1,15,Pin_15*%
%TO.N,Net-(J1-Pin_15)*%
X138938000Y-88392000D03*
%TO.P,J1,16,Pin_16*%
%TO.N,Net-(J1-Pin_16)*%
X136398000Y-88392000D03*
%TO.P,J1,17,Pin_17*%
%TO.N,Net-(J1-Pin_17)*%
X138938000Y-90932000D03*
%TO.P,J1,18,Pin_18*%
%TO.N,Net-(J1-Pin_18)*%
X136398000Y-90932000D03*
%TO.P,J1,19,Pin_19*%
%TO.N,Net-(J1-Pin_19)*%
X138938000Y-93472000D03*
%TO.P,J1,20,Pin_20*%
%TO.N,Net-(J1-Pin_20)*%
X136398000Y-93472000D03*
%TO.P,J1,21,Pin_21*%
%TO.N,Net-(J1-Pin_19)*%
X138938000Y-96012000D03*
%TO.P,J1,22,Pin_22*%
%TO.N,Net-(J1-Pin_22)*%
X136398000Y-96012000D03*
%TO.P,J1,23,Pin_23*%
%TO.N,Net-(J1-Pin_19)*%
X138938000Y-98552000D03*
%TO.P,J1,24,Pin_24*%
X136398000Y-98552000D03*
%TO.P,J1,25,Pin_25*%
%TO.N,unconnected-(J1-Pin_25-Pad25)*%
X138938000Y-101092000D03*
%TO.P,J1,26,Pin_26*%
%TO.N,Net-(D1-A)*%
X136398000Y-101092000D03*
%TO.P,J1,27,Pin_27*%
%TO.N,Net-(J1-Pin_19)*%
X138938000Y-103632000D03*
%TO.P,J1,28,Pin_28*%
%TO.N,Net-(J1-Pin_28)*%
X136398000Y-103632000D03*
%TO.P,J1,29,Pin_29*%
%TO.N,Net-(J1-Pin_19)*%
X138938000Y-106172000D03*
%TO.P,J1,30,Pin_30*%
%TO.N,Net-(J1-Pin_30)*%
X136398000Y-106172000D03*
%TO.P,J1,31,Pin_31*%
%TO.N,Net-(J1-Pin_31)*%
X138938000Y-108712000D03*
%TO.P,J1,32,Pin_32*%
%TO.N,Net-(J1-Pin_32)*%
X136398000Y-108712000D03*
%TO.P,J1,33,Pin_33*%
%TO.N,Net-(J1-Pin_33)*%
X138938000Y-111252000D03*
%TO.P,J1,34,Pin_34*%
%TO.N,Net-(J1-Pin_34)*%
X136398000Y-111252000D03*
%TO.P,J1,35,Pin_35*%
%TO.N,Net-(J1-Pin_35)*%
X138938000Y-113792000D03*
%TO.P,J1,36,Pin_36*%
%TO.N,Net-(J1-Pin_36)*%
X136398000Y-113792000D03*
%TO.P,J1,37,Pin_37*%
%TO.N,Net-(J1-Pin_37)*%
X138938000Y-116332000D03*
%TO.P,J1,38,Pin_38*%
%TO.N,Net-(J1-Pin_38)*%
X136398000Y-116332000D03*
%TO.P,J1,39,Pin_39*%
%TO.N,Net-(J1-Pin_39)*%
X138938000Y-118872000D03*
%TO.P,J1,40,Pin_40*%
%TO.N,Net-(J1-Pin_40)*%
X136398000Y-118872000D03*
%TO.P,J1,41,Pin_41*%
%TO.N,Net-(J1-Pin_41)*%
X138938000Y-121412000D03*
%TO.P,J1,42,Pin_42*%
%TO.N,Net-(J1-Pin_42)*%
X136398000Y-121412000D03*
%TO.P,J1,43,Pin_43*%
%TO.N,Net-(J1-Pin_43)*%
X138938000Y-123952000D03*
%TO.P,J1,44,Pin_44*%
%TO.N,Net-(J1-Pin_44)*%
X136398000Y-123952000D03*
%TO.P,J1,45,Pin_45*%
%TO.N,Net-(J1-Pin_45)*%
X138938000Y-126492000D03*
%TO.P,J1,46,Pin_46*%
%TO.N,Net-(J1-Pin_46)*%
X136398000Y-126492000D03*
%TO.P,J1,47,Pin_47*%
%TO.N,Net-(J1-Pin_47)*%
X138938000Y-129032000D03*
%TO.P,J1,48,Pin_48*%
%TO.N,Net-(J1-Pin_48)*%
X136398000Y-129032000D03*
%TO.P,J1,49,Pin_49*%
%TO.N,Net-(J1-Pin_49)*%
X138938000Y-131572000D03*
%TO.P,J1,50,Pin_50*%
%TO.N,Net-(J1-Pin_50)*%
X136398000Y-131572000D03*
%TD*%
D21*
%TO.N,Net-(D1-A)*%
X134748000Y-132255453D02*
X135715547Y-133223000D01*
X151812453Y-133223000D02*
X154305000Y-130937000D01*
X154305000Y-130937000D02*
X154305000Y-114681000D01*
X159893000Y-98171000D02*
X157988000Y-96266000D01*
X135715547Y-133223000D02*
X151812453Y-133223000D01*
X154305000Y-114681000D02*
X159893000Y-110861000D01*
X159893000Y-110861000D02*
X159893000Y-98171000D01*
%TO.N,Net-(J1-Pin_19)*%
X126238000Y-133350000D02*
X126238000Y-130810000D01*
%TO.N,Net-(D1-A)*%
X134748000Y-132255453D02*
X132003453Y-135000000D01*
X132003453Y-135000000D02*
X122808000Y-135000000D01*
X122808000Y-135000000D02*
X121158000Y-133350000D01*
X121158000Y-133350000D02*
X121158000Y-130810000D01*
X136398000Y-101092000D02*
X134748000Y-102742000D01*
X134748000Y-102742000D02*
X134748000Y-132255453D01*
D22*
%TO.N,Net-(J1-Pin_20)*%
X136398000Y-93472000D02*
X126353000Y-83427000D01*
X126353000Y-83427000D02*
X124760000Y-83427000D01*
%TO.N,Net-(J1-Pin_22)*%
X136398000Y-96012000D02*
X134575000Y-96012000D01*
X134575000Y-96012000D02*
X124760000Y-86197000D01*
D23*
%TO.N,Net-(J1-Pin_19)*%
X134818200Y-97277000D02*
X132130800Y-97277000D01*
X132130800Y-97277000D02*
X124760000Y-97277000D01*
X126238000Y-130810000D02*
X126238000Y-126898400D01*
X126238000Y-126898400D02*
X132130800Y-121005600D01*
X132130800Y-121005600D02*
X132130800Y-97277000D01*
X136398000Y-98552000D02*
X136093200Y-98552000D01*
X136093200Y-98552000D02*
X134818200Y-97277000D01*
%TO.N,Net-(D1-K)*%
X151130000Y-101092000D02*
X157988000Y-107950000D01*
X157988000Y-107950000D02*
X157988000Y-108966000D01*
D22*
%TO.N,Net-(J1-Pin_14)*%
X149980000Y-84702000D02*
X151130000Y-85852000D01*
X136398000Y-85852000D02*
X137548000Y-84702000D01*
X137548000Y-84702000D02*
X149980000Y-84702000D01*
%TO.N,Net-(J1-Pin_42)*%
X137548000Y-120262000D02*
X149980000Y-120262000D01*
X136398000Y-121412000D02*
X137548000Y-120262000D01*
X149980000Y-120262000D02*
X151130000Y-121412000D01*
%TO.N,Net-(J1-Pin_45)*%
X138938000Y-126492000D02*
X148590000Y-126492000D01*
%TO.N,Net-(J1-Pin_34)*%
X136398000Y-111252000D02*
X137548000Y-110102000D01*
X137548000Y-110102000D02*
X149980000Y-110102000D01*
X149980000Y-110102000D02*
X151130000Y-111252000D01*
%TO.N,Net-(J1-Pin_46)*%
X149980000Y-125342000D02*
X151130000Y-126492000D01*
X137548000Y-125342000D02*
X149980000Y-125342000D01*
X136398000Y-126492000D02*
X137548000Y-125342000D01*
%TO.N,Net-(J1-Pin_38)*%
X136398000Y-116332000D02*
X137548000Y-115182000D01*
X149980000Y-115182000D02*
X151130000Y-116332000D01*
X137548000Y-115182000D02*
X149980000Y-115182000D01*
%TO.N,Net-(J1-Pin_8)*%
X149980000Y-77082000D02*
X151130000Y-78232000D01*
X136398000Y-78232000D02*
X137548000Y-77082000D01*
X137548000Y-77082000D02*
X149980000Y-77082000D01*
D23*
%TO.N,Net-(J1-Pin_19)*%
X138938000Y-106172000D02*
X138938000Y-103632000D01*
X138938000Y-103632000D02*
X151130000Y-103632000D01*
X138938000Y-98552000D02*
X151130000Y-98552000D01*
X140488000Y-100102000D02*
X138938000Y-98552000D01*
X138938000Y-106172000D02*
X151130000Y-106172000D01*
X116078000Y-131157968D02*
X117975968Y-129260000D01*
X138938000Y-103632000D02*
X140488000Y-102082000D01*
X138938000Y-93472000D02*
X151130000Y-93472000D01*
X138938000Y-98552000D02*
X138938000Y-93472000D01*
X138938000Y-96012000D02*
X151130000Y-96012000D01*
X138938000Y-98552000D02*
X136398000Y-98552000D01*
X124688000Y-129260000D02*
X126238000Y-130810000D01*
X117975968Y-129260000D02*
X124688000Y-129260000D01*
X140488000Y-102082000D02*
X140488000Y-100102000D01*
X116078000Y-133350000D02*
X116078000Y-131157968D01*
D22*
%TO.N,Net-(J1-Pin_16)*%
X136398000Y-88392000D02*
X137548000Y-87242000D01*
X149980000Y-87242000D02*
X151130000Y-88392000D01*
X137548000Y-87242000D02*
X149980000Y-87242000D01*
%TO.N,Net-(J1-Pin_11)*%
X138938000Y-83312000D02*
X148590000Y-83312000D01*
%TO.N,Net-(J1-Pin_17)*%
X138938000Y-90932000D02*
X148590000Y-90932000D01*
%TO.N,Net-(J1-Pin_43)*%
X138938000Y-123952000D02*
X148590000Y-123952000D01*
%TO.N,Net-(J1-Pin_6)*%
X136398000Y-75692000D02*
X137548000Y-74542000D01*
X137548000Y-74542000D02*
X149980000Y-74542000D01*
X149980000Y-74542000D02*
X151130000Y-75692000D01*
%TO.N,/CHASSI*%
X124460000Y-81534000D02*
X124460000Y-81510000D01*
%TO.N,Net-(J1-Pin_41)*%
X138938000Y-121412000D02*
X148590000Y-121412000D01*
%TO.N,Net-(J1-Pin_3)*%
X138938000Y-73152000D02*
X148590000Y-73152000D01*
%TO.N,Net-(J1-Pin_50)*%
X149980000Y-130422000D02*
X151130000Y-131572000D01*
X136398000Y-131572000D02*
X137548000Y-130422000D01*
X137548000Y-130422000D02*
X149980000Y-130422000D01*
%TO.N,Net-(J1-Pin_49)*%
X138938000Y-131572000D02*
X148590000Y-131572000D01*
%TO.N,Net-(J1-Pin_33)*%
X138938000Y-111252000D02*
X148590000Y-111252000D01*
%TO.N,Net-(J1-Pin_37)*%
X138938000Y-116332000D02*
X148590000Y-116332000D01*
%TO.N,Net-(J1-Pin_15)*%
X138938000Y-88392000D02*
X148590000Y-88392000D01*
%TO.N,Net-(J1-Pin_39)*%
X138938000Y-118872000D02*
X148590000Y-118872000D01*
%TO.N,Net-(J1-Pin_4)*%
X149980000Y-72002000D02*
X151130000Y-73152000D01*
X137548000Y-72002000D02*
X149980000Y-72002000D01*
X136398000Y-73152000D02*
X137548000Y-72002000D01*
%TO.N,Net-(J1-Pin_1)*%
X138938000Y-70612000D02*
X148590000Y-70612000D01*
%TO.N,Net-(J1-Pin_36)*%
X149980000Y-112642000D02*
X137548000Y-112642000D01*
X137548000Y-112642000D02*
X136398000Y-113792000D01*
X151130000Y-113792000D02*
X149980000Y-112642000D01*
%TO.N,Net-(J1-Pin_35)*%
X138938000Y-113792000D02*
X148590000Y-113792000D01*
%TO.N,Net-(J1-Pin_13)*%
X138938000Y-85852000D02*
X148590000Y-85852000D01*
%TO.N,Net-(J1-Pin_48)*%
X149980000Y-127882000D02*
X137548000Y-127882000D01*
X151130000Y-129032000D02*
X149980000Y-127882000D01*
X137548000Y-127882000D02*
X136398000Y-129032000D01*
%TO.N,Net-(J1-Pin_12)*%
X149980000Y-82162000D02*
X151130000Y-83312000D01*
X137548000Y-82162000D02*
X149980000Y-82162000D01*
X136398000Y-83312000D02*
X137548000Y-82162000D01*
%TO.N,Net-(J1-Pin_5)*%
X138938000Y-75692000D02*
X148590000Y-75692000D01*
%TO.N,Net-(J1-Pin_2)*%
X149980000Y-69462000D02*
X151130000Y-70612000D01*
X137548000Y-69462000D02*
X149980000Y-69462000D01*
X136398000Y-70612000D02*
X137548000Y-69462000D01*
%TO.N,Net-(J1-Pin_10)*%
X137548000Y-79622000D02*
X149980000Y-79622000D01*
X149980000Y-79622000D02*
X151130000Y-80772000D01*
X136398000Y-80772000D02*
X137548000Y-79622000D01*
%TO.N,Net-(J1-Pin_40)*%
X137548000Y-117722000D02*
X136398000Y-118872000D01*
X149980000Y-117722000D02*
X137548000Y-117722000D01*
X151130000Y-118872000D02*
X149980000Y-117722000D01*
%TO.N,Net-(J1-Pin_44)*%
X149980000Y-122802000D02*
X137548000Y-122802000D01*
X151130000Y-123952000D02*
X149980000Y-122802000D01*
X137548000Y-122802000D02*
X136398000Y-123952000D01*
%TO.N,Net-(J1-Pin_9)*%
X138938000Y-80772000D02*
X148590000Y-80772000D01*
%TO.N,Net-(J1-Pin_47)*%
X138938000Y-129032000D02*
X148590000Y-129032000D01*
%TO.N,Net-(J1-Pin_31)*%
X138938000Y-108712000D02*
X148590000Y-108712000D01*
%TO.N,Net-(J1-Pin_32)*%
X151130000Y-108712000D02*
X149980000Y-107562000D01*
X137548000Y-107562000D02*
X136398000Y-108712000D01*
X149980000Y-107562000D02*
X137548000Y-107562000D01*
%TO.N,Net-(J1-Pin_7)*%
X138938000Y-78232000D02*
X148590000Y-78232000D01*
%TO.N,Net-(J1-Pin_18)*%
X149980000Y-89782000D02*
X151130000Y-90932000D01*
X136398000Y-90932000D02*
X137548000Y-89782000D01*
X137548000Y-89782000D02*
X149980000Y-89782000D01*
%TD*%
%TA.AperFunction,Conductor*%
%TO.N,/CHASSI*%
G36*
X165304539Y-63512185D02*
G01*
X165350294Y-63564989D01*
X165361500Y-63616500D01*
X165361500Y-138567500D01*
X165341815Y-138634539D01*
X165289011Y-138680294D01*
X165237500Y-138691500D01*
X102986500Y-138691500D01*
X102919461Y-138671815D01*
X102873706Y-138619011D01*
X102862500Y-138567500D01*
X102862500Y-130809999D01*
X114722341Y-130809999D01*
X114722341Y-130810000D01*
X114742936Y-131045403D01*
X114742938Y-131045413D01*
X114804094Y-131273655D01*
X114804096Y-131273659D01*
X114804097Y-131273663D01*
X114890991Y-131460008D01*
X114903965Y-131487830D01*
X114903967Y-131487834D01*
X115010670Y-131640220D01*
X115039504Y-131681400D01*
X115039506Y-131681402D01*
X115041181Y-131683077D01*
X115041682Y-131683995D01*
X115042982Y-131685544D01*
X115042670Y-131685805D01*
X115074666Y-131744400D01*
X115077500Y-131770758D01*
X115077500Y-132389241D01*
X115057815Y-132456280D01*
X115041181Y-132476922D01*
X115039505Y-132478597D01*
X114903965Y-132672169D01*
X114903964Y-132672171D01*
X114804098Y-132886335D01*
X114804094Y-132886344D01*
X114742938Y-133114586D01*
X114742936Y-133114596D01*
X114722341Y-133349999D01*
X114722341Y-133350000D01*
X114742936Y-133585403D01*
X114742938Y-133585413D01*
X114804094Y-133813655D01*
X114804096Y-133813659D01*
X114804097Y-133813663D01*
X114844124Y-133899500D01*
X114903965Y-134027830D01*
X114903967Y-134027834D01*
X114999472Y-134164228D01*
X115039505Y-134221401D01*
X115206599Y-134388495D01*
X115303384Y-134456265D01*
X115400165Y-134524032D01*
X115400167Y-134524033D01*
X115400170Y-134524035D01*
X115614337Y-134623903D01*
X115842592Y-134685063D01*
X116030918Y-134701539D01*
X116077999Y-134705659D01*
X116078000Y-134705659D01*
X116078001Y-134705659D01*
X116117234Y-134702226D01*
X116313408Y-134685063D01*
X116541663Y-134623903D01*
X116755830Y-134524035D01*
X116949401Y-134388495D01*
X117116495Y-134221401D01*
X117246425Y-134035842D01*
X117301002Y-133992217D01*
X117370500Y-133985023D01*
X117432855Y-134016546D01*
X117449575Y-134035842D01*
X117579500Y-134221395D01*
X117579505Y-134221401D01*
X117746599Y-134388495D01*
X117843384Y-134456265D01*
X117940165Y-134524032D01*
X117940167Y-134524033D01*
X117940170Y-134524035D01*
X118154337Y-134623903D01*
X118382592Y-134685063D01*
X118570918Y-134701539D01*
X118617999Y-134705659D01*
X118618000Y-134705659D01*
X118618001Y-134705659D01*
X118657234Y-134702226D01*
X118853408Y-134685063D01*
X119081663Y-134623903D01*
X119295830Y-134524035D01*
X119489401Y-134388495D01*
X119656495Y-134221401D01*
X119786425Y-134035842D01*
X119841002Y-133992217D01*
X119910500Y-133985023D01*
X119972855Y-134016546D01*
X119989575Y-134035842D01*
X120119500Y-134221395D01*
X120119505Y-134221401D01*
X120286599Y-134388495D01*
X120383384Y-134456265D01*
X120480165Y-134524032D01*
X120480167Y-134524033D01*
X120480170Y-134524035D01*
X120694337Y-134623903D01*
X120909800Y-134681635D01*
X120965386Y-134713728D01*
X122091072Y-135839414D01*
X122231212Y-135941232D01*
X122304131Y-135978386D01*
X122385549Y-136019871D01*
X122385551Y-136019871D01*
X122385554Y-136019873D01*
X122550299Y-136073402D01*
X122721389Y-136100500D01*
X122721390Y-136100500D01*
X132090063Y-136100500D01*
X132090064Y-136100500D01*
X132261154Y-136073402D01*
X132425898Y-136019873D01*
X132580241Y-135941232D01*
X132720381Y-135839414D01*
X134660319Y-133899476D01*
X134721642Y-133865991D01*
X134791334Y-133870975D01*
X134835681Y-133899476D01*
X134876133Y-133939928D01*
X134998619Y-134062414D01*
X135138759Y-134164232D01*
X135293102Y-134242873D01*
X135457846Y-134296402D01*
X135628936Y-134323500D01*
X151786004Y-134323500D01*
X151791358Y-134323615D01*
X151851459Y-134326214D01*
X151868167Y-134324303D01*
X151882256Y-134323500D01*
X151899061Y-134323500D01*
X151899064Y-134323500D01*
X151958506Y-134314084D01*
X151963764Y-134313367D01*
X152023560Y-134306529D01*
X152039758Y-134302028D01*
X152053539Y-134299032D01*
X152070154Y-134296402D01*
X152127399Y-134277801D01*
X152132450Y-134276279D01*
X152190463Y-134260164D01*
X152205765Y-134253181D01*
X152218902Y-134248069D01*
X152234898Y-134242873D01*
X152288508Y-134215556D01*
X152293304Y-134213242D01*
X152348057Y-134188262D01*
X152362075Y-134178973D01*
X152374261Y-134171864D01*
X152389241Y-134164232D01*
X152437915Y-134128867D01*
X152442307Y-134125819D01*
X152492463Y-134092591D01*
X152504856Y-134081223D01*
X152515777Y-134072296D01*
X152529381Y-134062414D01*
X152571931Y-134019862D01*
X152575753Y-134016201D01*
X154997411Y-131795216D01*
X155008314Y-131786304D01*
X155021928Y-131776414D01*
X155064475Y-131733865D01*
X155068296Y-131730205D01*
X155112672Y-131689508D01*
X155123138Y-131676336D01*
X155132518Y-131665823D01*
X155144414Y-131653928D01*
X155179824Y-131605188D01*
X155182979Y-131601037D01*
X155220446Y-131553895D01*
X155228722Y-131539249D01*
X155236344Y-131527396D01*
X155246232Y-131513788D01*
X155273570Y-131460131D01*
X155276064Y-131455487D01*
X155305679Y-131403093D01*
X155311558Y-131387343D01*
X155317246Y-131374411D01*
X155324873Y-131359445D01*
X155343469Y-131302209D01*
X155345218Y-131297201D01*
X155366272Y-131240816D01*
X155366273Y-131240814D01*
X155369616Y-131224341D01*
X155373204Y-131210695D01*
X155378402Y-131194701D01*
X155387817Y-131135248D01*
X155388761Y-131130022D01*
X155400733Y-131071053D01*
X155401459Y-131054241D01*
X155402866Y-131040236D01*
X155405500Y-131023611D01*
X155405500Y-130963449D01*
X155405616Y-130958093D01*
X155408214Y-130897998D01*
X155407776Y-130894171D01*
X155406303Y-130881284D01*
X155405500Y-130867196D01*
X155405500Y-123951999D01*
X156314922Y-123951999D01*
X156314922Y-123952000D01*
X156335219Y-124339287D01*
X156395886Y-124722323D01*
X156395887Y-124722330D01*
X156496262Y-125096936D01*
X156635244Y-125458994D01*
X156811310Y-125804543D01*
X157022523Y-126129783D01*
X157022525Y-126129785D01*
X157231096Y-126387348D01*
X158725747Y-124892697D01*
X158799588Y-124994330D01*
X158977670Y-125172412D01*
X159079301Y-125246251D01*
X157584650Y-126740902D01*
X157842214Y-126949475D01*
X157842216Y-126949476D01*
X158167456Y-127160689D01*
X158513005Y-127336755D01*
X158875063Y-127475737D01*
X159249669Y-127576112D01*
X159249676Y-127576113D01*
X159632712Y-127636780D01*
X160019999Y-127657078D01*
X160020001Y-127657078D01*
X160407287Y-127636780D01*
X160790323Y-127576113D01*
X160790330Y-127576112D01*
X161164936Y-127475737D01*
X161526994Y-127336755D01*
X161872543Y-127160689D01*
X162197771Y-126949484D01*
X162197784Y-126949474D01*
X162455348Y-126740902D01*
X160960698Y-125246252D01*
X161062330Y-125172412D01*
X161240412Y-124994330D01*
X161314252Y-124892698D01*
X162808902Y-126387348D01*
X163017474Y-126129784D01*
X163017484Y-126129771D01*
X163228689Y-125804543D01*
X163404755Y-125458994D01*
X163543737Y-125096936D01*
X163644112Y-124722330D01*
X163644113Y-124722323D01*
X163704780Y-124339287D01*
X163725078Y-123952000D01*
X163725078Y-123951999D01*
X163704780Y-123564712D01*
X163644113Y-123181676D01*
X163644112Y-123181669D01*
X163543737Y-122807063D01*
X163404755Y-122445005D01*
X163228689Y-122099456D01*
X163017476Y-121774216D01*
X163017475Y-121774214D01*
X162808902Y-121516650D01*
X161314251Y-123011301D01*
X161240412Y-122909670D01*
X161062330Y-122731588D01*
X160960698Y-122657748D01*
X162455349Y-121163096D01*
X162197785Y-120954525D01*
X162197783Y-120954523D01*
X161872543Y-120743310D01*
X161526994Y-120567244D01*
X161164936Y-120428262D01*
X160790330Y-120327887D01*
X160790323Y-120327886D01*
X160407287Y-120267219D01*
X160020001Y-120246922D01*
X160019999Y-120246922D01*
X159632712Y-120267219D01*
X159249676Y-120327886D01*
X159249669Y-120327887D01*
X158875063Y-120428262D01*
X158513005Y-120567244D01*
X158167456Y-120743310D01*
X157842206Y-120954531D01*
X157584649Y-121163095D01*
X157584649Y-121163096D01*
X159079301Y-122657748D01*
X158977670Y-122731588D01*
X158799588Y-122909670D01*
X158725748Y-123011301D01*
X157231096Y-121516649D01*
X157231095Y-121516649D01*
X157022531Y-121774206D01*
X156811310Y-122099456D01*
X156635244Y-122445005D01*
X156496262Y-122807063D01*
X156395887Y-123181669D01*
X156395886Y-123181676D01*
X156335219Y-123564712D01*
X156314922Y-123951999D01*
X155405500Y-123951999D01*
X155405500Y-115327194D01*
X155425185Y-115260155D01*
X155459518Y-115224829D01*
X160449081Y-111813925D01*
X160462754Y-111805815D01*
X160469788Y-111802232D01*
X160525707Y-111761603D01*
X160528567Y-111759588D01*
X160555747Y-111741007D01*
X160585554Y-111720633D01*
X160585555Y-111720632D01*
X160585555Y-111720631D01*
X160585562Y-111720627D01*
X160591296Y-111715211D01*
X160603542Y-111705052D01*
X160609928Y-111700414D01*
X160658827Y-111651513D01*
X160661235Y-111649173D01*
X160711511Y-111601703D01*
X160716328Y-111595456D01*
X160726833Y-111583508D01*
X160732414Y-111577928D01*
X160773037Y-111522013D01*
X160775125Y-111519224D01*
X160817305Y-111464540D01*
X160821086Y-111457616D01*
X160829600Y-111444162D01*
X160834232Y-111437788D01*
X160865587Y-111376246D01*
X160867239Y-111373116D01*
X160877849Y-111353692D01*
X160900340Y-111312517D01*
X160902992Y-111305085D01*
X160909296Y-111290464D01*
X160912873Y-111283445D01*
X160934215Y-111217758D01*
X160935338Y-111214462D01*
X160958571Y-111149374D01*
X160960028Y-111141617D01*
X160963964Y-111126202D01*
X160966402Y-111118701D01*
X160972818Y-111078188D01*
X160977209Y-111050468D01*
X160977816Y-111046961D01*
X160981449Y-111027635D01*
X160990564Y-110979133D01*
X160990789Y-110971241D01*
X160992264Y-110955405D01*
X160993500Y-110947611D01*
X160993500Y-110878561D01*
X160993551Y-110875005D01*
X160995531Y-110805988D01*
X160995530Y-110805976D01*
X160994521Y-110798158D01*
X160993500Y-110782280D01*
X160993500Y-98084389D01*
X160981602Y-98009267D01*
X160966402Y-97913299D01*
X160912873Y-97748555D01*
X160834232Y-97594212D01*
X160732414Y-97454072D01*
X160609928Y-97331586D01*
X159629768Y-96351426D01*
X159596283Y-96290103D01*
X159594210Y-96270827D01*
X159593831Y-96270857D01*
X159591986Y-96247413D01*
X159573683Y-96014852D01*
X159514873Y-95769889D01*
X159499899Y-95733738D01*
X159418466Y-95537140D01*
X159286839Y-95322346D01*
X159286838Y-95322343D01*
X159147956Y-95159734D01*
X159123224Y-95130776D01*
X158960522Y-94991815D01*
X158931656Y-94967161D01*
X158931653Y-94967160D01*
X158716859Y-94835533D01*
X158484110Y-94739126D01*
X158239151Y-94680317D01*
X157988000Y-94660551D01*
X157736848Y-94680317D01*
X157491889Y-94739126D01*
X157259140Y-94835533D01*
X157044346Y-94967160D01*
X157044343Y-94967161D01*
X156852776Y-95130776D01*
X156689161Y-95322343D01*
X156689160Y-95322346D01*
X156557533Y-95537140D01*
X156461126Y-95769889D01*
X156402317Y-96014848D01*
X156382551Y-96266000D01*
X156402317Y-96517151D01*
X156461126Y-96762110D01*
X156557533Y-96994859D01*
X156689160Y-97209653D01*
X156689161Y-97209656D01*
X156689164Y-97209659D01*
X156852776Y-97401224D01*
X156987951Y-97516674D01*
X157044343Y-97564838D01*
X157044346Y-97564839D01*
X157259140Y-97696466D01*
X157384888Y-97748552D01*
X157491889Y-97792873D01*
X157736852Y-97851683D01*
X157988000Y-97871449D01*
X157988001Y-97871448D01*
X157992857Y-97871831D01*
X157992725Y-97873498D01*
X158052784Y-97891134D01*
X158073426Y-97907768D01*
X158756181Y-98590523D01*
X158789666Y-98651846D01*
X158792500Y-98678204D01*
X158792500Y-107040216D01*
X158772815Y-107107255D01*
X158720011Y-107153010D01*
X158650853Y-107162954D01*
X158587297Y-107133929D01*
X158580819Y-107127897D01*
X152511890Y-101058969D01*
X152478405Y-100997646D01*
X152476043Y-100982095D01*
X152467648Y-100886139D01*
X152465063Y-100856592D01*
X152403903Y-100628337D01*
X152304035Y-100414171D01*
X152298425Y-100406158D01*
X152168494Y-100220597D01*
X152001402Y-100053506D01*
X152001396Y-100053501D01*
X151815842Y-99923575D01*
X151772217Y-99868998D01*
X151765023Y-99799500D01*
X151796546Y-99737145D01*
X151815842Y-99720425D01*
X151899217Y-99662045D01*
X152001401Y-99590495D01*
X152168495Y-99423401D01*
X152304035Y-99229830D01*
X152403903Y-99015663D01*
X152465063Y-98787408D01*
X152485659Y-98552000D01*
X152465063Y-98316592D01*
X152403903Y-98088337D01*
X152304035Y-97874171D01*
X152299621Y-97867866D01*
X152168494Y-97680597D01*
X152001402Y-97513506D01*
X152001396Y-97513501D01*
X151815842Y-97383575D01*
X151772217Y-97328998D01*
X151765023Y-97259500D01*
X151796546Y-97197145D01*
X151815842Y-97180425D01*
X151878573Y-97136500D01*
X152001401Y-97050495D01*
X152168495Y-96883401D01*
X152304035Y-96689830D01*
X152403903Y-96475663D01*
X152465063Y-96247408D01*
X152485659Y-96012000D01*
X152465063Y-95776592D01*
X152403903Y-95548337D01*
X152304035Y-95334171D01*
X152304034Y-95334169D01*
X152168494Y-95140597D01*
X152001402Y-94973506D01*
X152001396Y-94973501D01*
X151815842Y-94843575D01*
X151772217Y-94788998D01*
X151765023Y-94719500D01*
X151796546Y-94657145D01*
X151815842Y-94640425D01*
X151859736Y-94609690D01*
X152001401Y-94510495D01*
X152168495Y-94343401D01*
X152304035Y-94149830D01*
X152403903Y-93935663D01*
X152465063Y-93707408D01*
X152485659Y-93472000D01*
X152465063Y-93236592D01*
X152403903Y-93008337D01*
X152304035Y-92794171D01*
X152298425Y-92786158D01*
X152168494Y-92600597D01*
X152001402Y-92433506D01*
X152001396Y-92433501D01*
X151815842Y-92303575D01*
X151772217Y-92248998D01*
X151765023Y-92179500D01*
X151796546Y-92117145D01*
X151815842Y-92100425D01*
X151838026Y-92084891D01*
X152001401Y-91970495D01*
X152168495Y-91803401D01*
X152304035Y-91609830D01*
X152403903Y-91395663D01*
X152465063Y-91167408D01*
X152485659Y-90932000D01*
X152465063Y-90696592D01*
X152403903Y-90468337D01*
X152304035Y-90254171D01*
X152302960Y-90252635D01*
X152168494Y-90060597D01*
X152001402Y-89893506D01*
X152001396Y-89893501D01*
X151815842Y-89763575D01*
X151772217Y-89708998D01*
X151765023Y-89639500D01*
X151796546Y-89577145D01*
X151815842Y-89560425D01*
X151883770Y-89512861D01*
X152001401Y-89430495D01*
X152168495Y-89263401D01*
X152304035Y-89069830D01*
X152403903Y-88855663D01*
X152465063Y-88627408D01*
X152485659Y-88392000D01*
X152465063Y-88156592D01*
X152403903Y-87928337D01*
X152304035Y-87714171D01*
X152295356Y-87701775D01*
X152168494Y-87520597D01*
X152001402Y-87353506D01*
X152001396Y-87353501D01*
X151815842Y-87223575D01*
X151772217Y-87168998D01*
X151765023Y-87099500D01*
X151796546Y-87037145D01*
X151815842Y-87020425D01*
X151838026Y-87004891D01*
X152001401Y-86890495D01*
X152168495Y-86723401D01*
X152304035Y-86529830D01*
X152403903Y-86315663D01*
X152465063Y-86087408D01*
X152485659Y-85852000D01*
X152465063Y-85616592D01*
X152403903Y-85388337D01*
X152304035Y-85174171D01*
X152209176Y-85038697D01*
X152168494Y-84980597D01*
X152001402Y-84813506D01*
X152001396Y-84813501D01*
X151815842Y-84683575D01*
X151772217Y-84628998D01*
X151765023Y-84559500D01*
X151796546Y-84497145D01*
X151815842Y-84480425D01*
X151838026Y-84464891D01*
X152001401Y-84350495D01*
X152168495Y-84183401D01*
X152304035Y-83989830D01*
X152403903Y-83775663D01*
X152465063Y-83547408D01*
X152485659Y-83312000D01*
X152465063Y-83076592D01*
X152403903Y-82848337D01*
X152304035Y-82634171D01*
X152271607Y-82587858D01*
X152168494Y-82440597D01*
X152001402Y-82273506D01*
X152001396Y-82273501D01*
X151815842Y-82143575D01*
X151772217Y-82088998D01*
X151765023Y-82019500D01*
X151796546Y-81957145D01*
X151815842Y-81940425D01*
X151873075Y-81900350D01*
X152001401Y-81810495D01*
X152168495Y-81643401D01*
X152304035Y-81449830D01*
X152403903Y-81235663D01*
X152465063Y-81007408D01*
X152485659Y-80772000D01*
X152465063Y-80536592D01*
X152403903Y-80308337D01*
X152304035Y-80094171D01*
X152297294Y-80084543D01*
X152168494Y-79900597D01*
X152001402Y-79733506D01*
X152001396Y-79733501D01*
X151815842Y-79603575D01*
X151772217Y-79548998D01*
X151765023Y-79479500D01*
X151796546Y-79417145D01*
X151815842Y-79400425D01*
X151868715Y-79363403D01*
X152001401Y-79270495D01*
X152168495Y-79103401D01*
X152304035Y-78909830D01*
X152403903Y-78695663D01*
X152465063Y-78467408D01*
X152485659Y-78232000D01*
X152485659Y-78231999D01*
X156314922Y-78231999D01*
X156314922Y-78232000D01*
X156335219Y-78619287D01*
X156395886Y-79002323D01*
X156395887Y-79002330D01*
X156496262Y-79376936D01*
X156635244Y-79738994D01*
X156811310Y-80084543D01*
X157022523Y-80409783D01*
X157022525Y-80409785D01*
X157231096Y-80667348D01*
X158725747Y-79172697D01*
X158799588Y-79274330D01*
X158977670Y-79452412D01*
X159079301Y-79526251D01*
X157584650Y-81020902D01*
X157842214Y-81229475D01*
X157842216Y-81229476D01*
X158167456Y-81440689D01*
X158513005Y-81616755D01*
X158875063Y-81755737D01*
X159249669Y-81856112D01*
X159249676Y-81856113D01*
X159632712Y-81916780D01*
X160019999Y-81937078D01*
X160020001Y-81937078D01*
X160407287Y-81916780D01*
X160790323Y-81856113D01*
X160790330Y-81856112D01*
X161164936Y-81755737D01*
X161526994Y-81616755D01*
X161872543Y-81440689D01*
X162197771Y-81229484D01*
X162197784Y-81229474D01*
X162455348Y-81020902D01*
X160960698Y-79526252D01*
X161062330Y-79452412D01*
X161240412Y-79274330D01*
X161314252Y-79172698D01*
X162808902Y-80667348D01*
X163017474Y-80409784D01*
X163017484Y-80409771D01*
X163228689Y-80084543D01*
X163404755Y-79738994D01*
X163543737Y-79376936D01*
X163644112Y-79002330D01*
X163644113Y-79002323D01*
X163704780Y-78619287D01*
X163725078Y-78232000D01*
X163725078Y-78231999D01*
X163704780Y-77844712D01*
X163644113Y-77461676D01*
X163644112Y-77461669D01*
X163543737Y-77087063D01*
X163404755Y-76725005D01*
X163228689Y-76379456D01*
X163017476Y-76054216D01*
X163017475Y-76054214D01*
X162808902Y-75796650D01*
X161314251Y-77291301D01*
X161240412Y-77189670D01*
X161062330Y-77011588D01*
X160960698Y-76937748D01*
X162455349Y-75443096D01*
X162197785Y-75234525D01*
X162197783Y-75234523D01*
X161872543Y-75023310D01*
X161526994Y-74847244D01*
X161164936Y-74708262D01*
X160790330Y-74607887D01*
X160790323Y-74607886D01*
X160407287Y-74547219D01*
X160020001Y-74526922D01*
X160019999Y-74526922D01*
X159632712Y-74547219D01*
X159249676Y-74607886D01*
X159249669Y-74607887D01*
X158875063Y-74708262D01*
X158513005Y-74847244D01*
X158167456Y-75023310D01*
X157842206Y-75234531D01*
X157584649Y-75443095D01*
X157584649Y-75443096D01*
X159079301Y-76937748D01*
X158977670Y-77011588D01*
X158799588Y-77189670D01*
X158725748Y-77291301D01*
X157231096Y-75796649D01*
X157231095Y-75796649D01*
X157022531Y-76054206D01*
X156811310Y-76379456D01*
X156635244Y-76725005D01*
X156496262Y-77087063D01*
X156395887Y-77461669D01*
X156395886Y-77461676D01*
X156335219Y-77844712D01*
X156314922Y-78231999D01*
X152485659Y-78231999D01*
X152465063Y-77996592D01*
X152403903Y-77768337D01*
X152304035Y-77554171D01*
X152191475Y-77393417D01*
X152168494Y-77360597D01*
X152001402Y-77193506D01*
X152001396Y-77193501D01*
X151815842Y-77063575D01*
X151772217Y-77008998D01*
X151765023Y-76939500D01*
X151796546Y-76877145D01*
X151815842Y-76860425D01*
X151838026Y-76844891D01*
X152001401Y-76730495D01*
X152168495Y-76563401D01*
X152304035Y-76369830D01*
X152403903Y-76155663D01*
X152465063Y-75927408D01*
X152485659Y-75692000D01*
X152465063Y-75456592D01*
X152403903Y-75228337D01*
X152304035Y-75014171D01*
X152168495Y-74820599D01*
X152168494Y-74820597D01*
X152001402Y-74653506D01*
X152001396Y-74653501D01*
X151815842Y-74523575D01*
X151772217Y-74468998D01*
X151765023Y-74399500D01*
X151796546Y-74337145D01*
X151815842Y-74320425D01*
X151838026Y-74304891D01*
X152001401Y-74190495D01*
X152168495Y-74023401D01*
X152304035Y-73829830D01*
X152403903Y-73615663D01*
X152465063Y-73387408D01*
X152485659Y-73152000D01*
X152465063Y-72916592D01*
X152403903Y-72688337D01*
X152304035Y-72474171D01*
X152168495Y-72280599D01*
X152168494Y-72280597D01*
X152001402Y-72113506D01*
X152001396Y-72113501D01*
X151815842Y-71983575D01*
X151772217Y-71928998D01*
X151765023Y-71859500D01*
X151796546Y-71797145D01*
X151815842Y-71780425D01*
X151838026Y-71764891D01*
X152001401Y-71650495D01*
X152168495Y-71483401D01*
X152304035Y-71289830D01*
X152403903Y-71075663D01*
X152465063Y-70847408D01*
X152485659Y-70612000D01*
X152465063Y-70376592D01*
X152403903Y-70148337D01*
X152304035Y-69934171D01*
X152168495Y-69740599D01*
X152168494Y-69740597D01*
X152001402Y-69573506D01*
X152001395Y-69573501D01*
X151807834Y-69437967D01*
X151807830Y-69437965D01*
X151807828Y-69437964D01*
X151593663Y-69338097D01*
X151593659Y-69338096D01*
X151593655Y-69338094D01*
X151365413Y-69276938D01*
X151365403Y-69276936D01*
X151130001Y-69256341D01*
X151129999Y-69256341D01*
X150894596Y-69276936D01*
X150894583Y-69276939D01*
X150766241Y-69311327D01*
X150696392Y-69309664D01*
X150646468Y-69279233D01*
X150467590Y-69100355D01*
X150467588Y-69100352D01*
X150348717Y-68981481D01*
X150348716Y-68981480D01*
X150261904Y-68931360D01*
X150261904Y-68931359D01*
X150261900Y-68931358D01*
X150211785Y-68902423D01*
X150059057Y-68861499D01*
X149900943Y-68861499D01*
X149893347Y-68861499D01*
X149893331Y-68861500D01*
X137634670Y-68861500D01*
X137634654Y-68861499D01*
X137627058Y-68861499D01*
X137468943Y-68861499D01*
X137392579Y-68881961D01*
X137316214Y-68902423D01*
X137316209Y-68902426D01*
X137179290Y-68981475D01*
X137179286Y-68981478D01*
X136881529Y-69279234D01*
X136820206Y-69312718D01*
X136761755Y-69311327D01*
X136633413Y-69276938D01*
X136633403Y-69276936D01*
X136398001Y-69256341D01*
X136397999Y-69256341D01*
X136162596Y-69276936D01*
X136162586Y-69276938D01*
X135934344Y-69338094D01*
X135934335Y-69338098D01*
X135720171Y-69437964D01*
X135720169Y-69437965D01*
X135526597Y-69573505D01*
X135359505Y-69740597D01*
X135223965Y-69934169D01*
X135223964Y-69934171D01*
X135124098Y-70148335D01*
X135124094Y-70148344D01*
X135062938Y-70376586D01*
X135062936Y-70376596D01*
X135042341Y-70611999D01*
X135042341Y-70612000D01*
X135062936Y-70847403D01*
X135062938Y-70847413D01*
X135124094Y-71075655D01*
X135124096Y-71075659D01*
X135124097Y-71075663D01*
X135194667Y-71227000D01*
X135223965Y-71289830D01*
X135223967Y-71289834D01*
X135359501Y-71483395D01*
X135359506Y-71483402D01*
X135526597Y-71650493D01*
X135526603Y-71650498D01*
X135712158Y-71780425D01*
X135755783Y-71835002D01*
X135762977Y-71904500D01*
X135731454Y-71966855D01*
X135712158Y-71983575D01*
X135526597Y-72113505D01*
X135359505Y-72280597D01*
X135223965Y-72474169D01*
X135223964Y-72474171D01*
X135124098Y-72688335D01*
X135124094Y-72688344D01*
X135062938Y-72916586D01*
X135062936Y-72916596D01*
X135042341Y-73151999D01*
X135042341Y-73152000D01*
X135062936Y-73387403D01*
X135062938Y-73387413D01*
X135124094Y-73615655D01*
X135124096Y-73615659D01*
X135124097Y-73615663D01*
X135223965Y-73829830D01*
X135223967Y-73829834D01*
X135359501Y-74023395D01*
X135359506Y-74023402D01*
X135526597Y-74190493D01*
X135526603Y-74190498D01*
X135712158Y-74320425D01*
X135755783Y-74375002D01*
X135762977Y-74444500D01*
X135731454Y-74506855D01*
X135712158Y-74523575D01*
X135526597Y-74653505D01*
X135359505Y-74820597D01*
X135223965Y-75014169D01*
X135223964Y-75014171D01*
X135124098Y-75228335D01*
X135124094Y-75228344D01*
X135062938Y-75456586D01*
X135062936Y-75456596D01*
X135042341Y-75691999D01*
X135042341Y-75692000D01*
X135062936Y-75927403D01*
X135062938Y-75927413D01*
X135124094Y-76155655D01*
X135124096Y-76155659D01*
X135124097Y-76155663D01*
X135223965Y-76369830D01*
X135223967Y-76369834D01*
X135359501Y-76563395D01*
X135359506Y-76563402D01*
X135526597Y-76730493D01*
X135526603Y-76730498D01*
X135712158Y-76860425D01*
X135755783Y-76915002D01*
X135762977Y-76984500D01*
X135731454Y-77046855D01*
X135712158Y-77063575D01*
X135526597Y-77193505D01*
X135359505Y-77360597D01*
X135223965Y-77554169D01*
X135223964Y-77554171D01*
X135124098Y-77768335D01*
X135124094Y-77768344D01*
X135062938Y-77996586D01*
X135062936Y-77996596D01*
X135042341Y-78231999D01*
X135042341Y-78232000D01*
X135062936Y-78467403D01*
X135062938Y-78467413D01*
X135124094Y-78695655D01*
X135124096Y-78695659D01*
X135124097Y-78695663D01*
X135194288Y-78846187D01*
X135223965Y-78909830D01*
X135223967Y-78909834D01*
X135359501Y-79103395D01*
X135359506Y-79103402D01*
X135526597Y-79270493D01*
X135526603Y-79270498D01*
X135712158Y-79400425D01*
X135755783Y-79455002D01*
X135762977Y-79524500D01*
X135731454Y-79586855D01*
X135712158Y-79603575D01*
X135526597Y-79733505D01*
X135359505Y-79900597D01*
X135223965Y-80094169D01*
X135223964Y-80094171D01*
X135124098Y-80308335D01*
X135124094Y-80308344D01*
X135062938Y-80536586D01*
X135062936Y-80536596D01*
X135042341Y-80771999D01*
X135042341Y-80772000D01*
X135062936Y-81007403D01*
X135062938Y-81007413D01*
X135124094Y-81235655D01*
X135124096Y-81235659D01*
X135124097Y-81235663D01*
X135195724Y-81389267D01*
X135223965Y-81449830D01*
X135223967Y-81449834D01*
X135359501Y-81643395D01*
X135359506Y-81643402D01*
X135526597Y-81810493D01*
X135526603Y-81810498D01*
X135712158Y-81940425D01*
X135755783Y-81995002D01*
X135762977Y-82064500D01*
X135731454Y-82126855D01*
X135712158Y-82143575D01*
X135526597Y-82273505D01*
X135359505Y-82440597D01*
X135223965Y-82634169D01*
X135223964Y-82634171D01*
X135124098Y-82848335D01*
X135124094Y-82848344D01*
X135062938Y-83076586D01*
X135062936Y-83076596D01*
X135042341Y-83311999D01*
X135042341Y-83312000D01*
X135062936Y-83547403D01*
X135062938Y-83547413D01*
X135124094Y-83775655D01*
X135124096Y-83775659D01*
X135124097Y-83775663D01*
X135216051Y-83972858D01*
X135223965Y-83989830D01*
X135223967Y-83989834D01*
X135302157Y-84101500D01*
X135342605Y-84159266D01*
X135359501Y-84183395D01*
X135359506Y-84183402D01*
X135526597Y-84350493D01*
X135526603Y-84350498D01*
X135712158Y-84480425D01*
X135755783Y-84535002D01*
X135762977Y-84604500D01*
X135731454Y-84666855D01*
X135712158Y-84683575D01*
X135526597Y-84813505D01*
X135359505Y-84980597D01*
X135223965Y-85174169D01*
X135223964Y-85174171D01*
X135124098Y-85388335D01*
X135124094Y-85388344D01*
X135062938Y-85616586D01*
X135062936Y-85616596D01*
X135042341Y-85851999D01*
X135042341Y-85852000D01*
X135062936Y-86087403D01*
X135062938Y-86087413D01*
X135124094Y-86315655D01*
X135124096Y-86315659D01*
X135124097Y-86315663D01*
X135219349Y-86519931D01*
X135223965Y-86529830D01*
X135223967Y-86529834D01*
X135359501Y-86723395D01*
X135359506Y-86723402D01*
X135526597Y-86890493D01*
X135526603Y-86890498D01*
X135712158Y-87020425D01*
X135755783Y-87075002D01*
X135762977Y-87144500D01*
X135731454Y-87206855D01*
X135712158Y-87223575D01*
X135526597Y-87353505D01*
X135359505Y-87520597D01*
X135223965Y-87714169D01*
X135223964Y-87714171D01*
X135124098Y-87928335D01*
X135124094Y-87928344D01*
X135062938Y-88156586D01*
X135062936Y-88156596D01*
X135042341Y-88391999D01*
X135042341Y-88392000D01*
X135062936Y-88627403D01*
X135062938Y-88627413D01*
X135124094Y-88855655D01*
X135124096Y-88855659D01*
X135124097Y-88855663D01*
X135198776Y-89015812D01*
X135223965Y-89069830D01*
X135223967Y-89069834D01*
X135359501Y-89263395D01*
X135359506Y-89263402D01*
X135526597Y-89430493D01*
X135526603Y-89430498D01*
X135712158Y-89560425D01*
X135755783Y-89615002D01*
X135762977Y-89684500D01*
X135731454Y-89746855D01*
X135712158Y-89763575D01*
X135526597Y-89893505D01*
X135359505Y-90060597D01*
X135223965Y-90254169D01*
X135223964Y-90254171D01*
X135124098Y-90468335D01*
X135124094Y-90468344D01*
X135062938Y-90696586D01*
X135062936Y-90696596D01*
X135042341Y-90931999D01*
X135042341Y-90932000D01*
X135044777Y-90959844D01*
X135031010Y-91028344D01*
X134982395Y-91078528D01*
X134914367Y-91094461D01*
X134848523Y-91071086D01*
X134833568Y-91058333D01*
X126840590Y-83065355D01*
X126840588Y-83065352D01*
X126721717Y-82946481D01*
X126721716Y-82946480D01*
X126634904Y-82896360D01*
X126634904Y-82896359D01*
X126634900Y-82896358D01*
X126584785Y-82867423D01*
X126432057Y-82826499D01*
X126273943Y-82826499D01*
X126266347Y-82826499D01*
X126266331Y-82826500D01*
X125991692Y-82826500D01*
X125924653Y-82806815D01*
X125890119Y-82773625D01*
X125760047Y-82587861D01*
X125760045Y-82587858D01*
X125599141Y-82426954D01*
X125412734Y-82296432D01*
X125412732Y-82296431D01*
X125206497Y-82200261D01*
X125201402Y-82198407D01*
X125201969Y-82196847D01*
X125148753Y-82164408D01*
X125118225Y-82101560D01*
X125126522Y-82032185D01*
X125171009Y-81978308D01*
X125237561Y-81957035D01*
X125240509Y-81957000D01*
X125607828Y-81957000D01*
X125607844Y-81956999D01*
X125667372Y-81950598D01*
X125667379Y-81950596D01*
X125802086Y-81900354D01*
X125802093Y-81900350D01*
X125917187Y-81814190D01*
X125917190Y-81814187D01*
X126003350Y-81699093D01*
X126003354Y-81699086D01*
X126053596Y-81564379D01*
X126053598Y-81564372D01*
X126059999Y-81504844D01*
X126060000Y-81504827D01*
X126060000Y-80907000D01*
X125193012Y-80907000D01*
X125225925Y-80849993D01*
X125260000Y-80722826D01*
X125260000Y-80591174D01*
X125225925Y-80464007D01*
X125193012Y-80407000D01*
X126060000Y-80407000D01*
X126060000Y-79809172D01*
X126059999Y-79809155D01*
X126053598Y-79749627D01*
X126053596Y-79749620D01*
X126003354Y-79614913D01*
X126003350Y-79614906D01*
X125917190Y-79499812D01*
X125917187Y-79499809D01*
X125802093Y-79413649D01*
X125802086Y-79413645D01*
X125667379Y-79363403D01*
X125667372Y-79363401D01*
X125607844Y-79357000D01*
X125010000Y-79357000D01*
X125010000Y-80223988D01*
X124952993Y-80191075D01*
X124825826Y-80157000D01*
X124694174Y-80157000D01*
X124567007Y-80191075D01*
X124510000Y-80223988D01*
X124510000Y-79357000D01*
X123912155Y-79357000D01*
X123852627Y-79363401D01*
X123852620Y-79363403D01*
X123717913Y-79413645D01*
X123717906Y-79413649D01*
X123602812Y-79499809D01*
X123602809Y-79499812D01*
X123516649Y-79614906D01*
X123516645Y-79614913D01*
X123466403Y-79749620D01*
X123466401Y-79749627D01*
X123460000Y-79809155D01*
X123460000Y-80407000D01*
X124326988Y-80407000D01*
X124294075Y-80464007D01*
X124260000Y-80591174D01*
X124260000Y-80722826D01*
X124294075Y-80849993D01*
X124326988Y-80907000D01*
X123460000Y-80907000D01*
X123460000Y-81504844D01*
X123466401Y-81564372D01*
X123466403Y-81564379D01*
X123516645Y-81699086D01*
X123516649Y-81699093D01*
X123602809Y-81814187D01*
X123602812Y-81814190D01*
X123717906Y-81900350D01*
X123717913Y-81900354D01*
X123852620Y-81950596D01*
X123852627Y-81950598D01*
X123912155Y-81956999D01*
X123912172Y-81957000D01*
X124279491Y-81957000D01*
X124346530Y-81976685D01*
X124392285Y-82029489D01*
X124402229Y-82098647D01*
X124373204Y-82162203D01*
X124318270Y-82197506D01*
X124318598Y-82198407D01*
X124314610Y-82199858D01*
X124314426Y-82199977D01*
X124313809Y-82200150D01*
X124313502Y-82200261D01*
X124107267Y-82296431D01*
X124107265Y-82296432D01*
X123920858Y-82426954D01*
X123759954Y-82587858D01*
X123629432Y-82774265D01*
X123629431Y-82774267D01*
X123533261Y-82980502D01*
X123533258Y-82980511D01*
X123474366Y-83200302D01*
X123474364Y-83200313D01*
X123454532Y-83426998D01*
X123454532Y-83427001D01*
X123474364Y-83653686D01*
X123474366Y-83653697D01*
X123533258Y-83873488D01*
X123533261Y-83873497D01*
X123629431Y-84079732D01*
X123629432Y-84079734D01*
X123759954Y-84266141D01*
X123920858Y-84427045D01*
X123920861Y-84427047D01*
X124107266Y-84557568D01*
X124313504Y-84653739D01*
X124313509Y-84653740D01*
X124313511Y-84653741D01*
X124457136Y-84692225D01*
X124516797Y-84728590D01*
X124547326Y-84791437D01*
X124539031Y-84860812D01*
X124494546Y-84914690D01*
X124457136Y-84931775D01*
X124313511Y-84970258D01*
X124313502Y-84970261D01*
X124107267Y-85066431D01*
X124107265Y-85066432D01*
X123920858Y-85196954D01*
X123759954Y-85357858D01*
X123629432Y-85544265D01*
X123629431Y-85544267D01*
X123533261Y-85750502D01*
X123533258Y-85750511D01*
X123474366Y-85970302D01*
X123474364Y-85970313D01*
X123454532Y-86196998D01*
X123454532Y-86197001D01*
X123474364Y-86423686D01*
X123474366Y-86423697D01*
X123533258Y-86643488D01*
X123533261Y-86643497D01*
X123629431Y-86849732D01*
X123629432Y-86849734D01*
X123759954Y-87036141D01*
X123920858Y-87197045D01*
X123920861Y-87197047D01*
X124107266Y-87327568D01*
X124313504Y-87423739D01*
X124313509Y-87423740D01*
X124313511Y-87423741D01*
X124457136Y-87462225D01*
X124516797Y-87498590D01*
X124547326Y-87561437D01*
X124539031Y-87630812D01*
X124494546Y-87684690D01*
X124457136Y-87701775D01*
X124313511Y-87740258D01*
X124313502Y-87740261D01*
X124107267Y-87836431D01*
X124107265Y-87836432D01*
X123920858Y-87966954D01*
X123759954Y-88127858D01*
X123629432Y-88314265D01*
X123629431Y-88314267D01*
X123533261Y-88520502D01*
X123533258Y-88520511D01*
X123474366Y-88740302D01*
X123474364Y-88740313D01*
X123454532Y-88966998D01*
X123454532Y-88967001D01*
X123474364Y-89193686D01*
X123474366Y-89193697D01*
X123533258Y-89413488D01*
X123533261Y-89413497D01*
X123629431Y-89619732D01*
X123629432Y-89619734D01*
X123759954Y-89806141D01*
X123920858Y-89967045D01*
X123920861Y-89967047D01*
X124107266Y-90097568D01*
X124313504Y-90193739D01*
X124313509Y-90193740D01*
X124313511Y-90193741D01*
X124457136Y-90232225D01*
X124516797Y-90268590D01*
X124547326Y-90331437D01*
X124539031Y-90400812D01*
X124494546Y-90454690D01*
X124457136Y-90471775D01*
X124313511Y-90510258D01*
X124313502Y-90510261D01*
X124107267Y-90606431D01*
X124107265Y-90606432D01*
X123920858Y-90736954D01*
X123759954Y-90897858D01*
X123629432Y-91084265D01*
X123629431Y-91084267D01*
X123533261Y-91290502D01*
X123533258Y-91290511D01*
X123474366Y-91510302D01*
X123474364Y-91510313D01*
X123454532Y-91736998D01*
X123454532Y-91737001D01*
X123474364Y-91963686D01*
X123474366Y-91963697D01*
X123533258Y-92183488D01*
X123533261Y-92183497D01*
X123629431Y-92389732D01*
X123629432Y-92389734D01*
X123759954Y-92576141D01*
X123920858Y-92737045D01*
X123920861Y-92737047D01*
X124107266Y-92867568D01*
X124313504Y-92963739D01*
X124313509Y-92963740D01*
X124313511Y-92963741D01*
X124457136Y-93002225D01*
X124516797Y-93038590D01*
X124547326Y-93101437D01*
X124539031Y-93170812D01*
X124494546Y-93224690D01*
X124457136Y-93241775D01*
X124313511Y-93280258D01*
X124313502Y-93280261D01*
X124107267Y-93376431D01*
X124107265Y-93376432D01*
X123920858Y-93506954D01*
X123759954Y-93667858D01*
X123629432Y-93854265D01*
X123629431Y-93854267D01*
X123533261Y-94060502D01*
X123533258Y-94060511D01*
X123474366Y-94280302D01*
X123474364Y-94280313D01*
X123454532Y-94506998D01*
X123454532Y-94507001D01*
X123474364Y-94733686D01*
X123474366Y-94733697D01*
X123533258Y-94953488D01*
X123533261Y-94953497D01*
X123629431Y-95159732D01*
X123629432Y-95159734D01*
X123759954Y-95346141D01*
X123920858Y-95507045D01*
X123920861Y-95507047D01*
X124107266Y-95637568D01*
X124313504Y-95733739D01*
X124313509Y-95733740D01*
X124313511Y-95733741D01*
X124457136Y-95772225D01*
X124516797Y-95808590D01*
X124547326Y-95871437D01*
X124539031Y-95940812D01*
X124494546Y-95994690D01*
X124457136Y-96011775D01*
X124313511Y-96050258D01*
X124313502Y-96050261D01*
X124107267Y-96146431D01*
X124107265Y-96146432D01*
X123920858Y-96276954D01*
X123759954Y-96437858D01*
X123629432Y-96624265D01*
X123629431Y-96624267D01*
X123533261Y-96830502D01*
X123533258Y-96830511D01*
X123474366Y-97050302D01*
X123474364Y-97050313D01*
X123454532Y-97276998D01*
X123454532Y-97277001D01*
X123474364Y-97503686D01*
X123474366Y-97503697D01*
X123533258Y-97723488D01*
X123533261Y-97723497D01*
X123629431Y-97929732D01*
X123629432Y-97929734D01*
X123759954Y-98116141D01*
X123920858Y-98277045D01*
X123920861Y-98277047D01*
X124107266Y-98407568D01*
X124313504Y-98503739D01*
X124313509Y-98503740D01*
X124313511Y-98503741D01*
X124457136Y-98542225D01*
X124516797Y-98578590D01*
X124547326Y-98641437D01*
X124539031Y-98710812D01*
X124494546Y-98764690D01*
X124457136Y-98781775D01*
X124313511Y-98820258D01*
X124313502Y-98820261D01*
X124107267Y-98916431D01*
X124107265Y-98916432D01*
X123920858Y-99046954D01*
X123759954Y-99207858D01*
X123629432Y-99394265D01*
X123629431Y-99394267D01*
X123533261Y-99600502D01*
X123533258Y-99600511D01*
X123474366Y-99820302D01*
X123474364Y-99820313D01*
X123454532Y-100046998D01*
X123454532Y-100047001D01*
X123474364Y-100273686D01*
X123474366Y-100273697D01*
X123533258Y-100493488D01*
X123533261Y-100493497D01*
X123629431Y-100699732D01*
X123629432Y-100699734D01*
X123759954Y-100886141D01*
X123920858Y-101047045D01*
X123967693Y-101079839D01*
X124107266Y-101177568D01*
X124313504Y-101273739D01*
X124313509Y-101273740D01*
X124313511Y-101273741D01*
X124457136Y-101312225D01*
X124516797Y-101348590D01*
X124547326Y-101411437D01*
X124539031Y-101480812D01*
X124494546Y-101534690D01*
X124457136Y-101551775D01*
X124313511Y-101590258D01*
X124313502Y-101590261D01*
X124107267Y-101686431D01*
X124107265Y-101686432D01*
X123920858Y-101816954D01*
X123759954Y-101977858D01*
X123629432Y-102164265D01*
X123629431Y-102164267D01*
X123533261Y-102370502D01*
X123533258Y-102370511D01*
X123474366Y-102590302D01*
X123474364Y-102590313D01*
X123454532Y-102816998D01*
X123454532Y-102817001D01*
X123474364Y-103043686D01*
X123474366Y-103043697D01*
X123533258Y-103263488D01*
X123533261Y-103263497D01*
X123629431Y-103469732D01*
X123629432Y-103469734D01*
X123759954Y-103656141D01*
X123920858Y-103817045D01*
X123920861Y-103817047D01*
X124107266Y-103947568D01*
X124313504Y-104043739D01*
X124313509Y-104043740D01*
X124313511Y-104043741D01*
X124457136Y-104082225D01*
X124516797Y-104118590D01*
X124547326Y-104181437D01*
X124539031Y-104250812D01*
X124494546Y-104304690D01*
X124457136Y-104321775D01*
X124313511Y-104360258D01*
X124313502Y-104360261D01*
X124107267Y-104456431D01*
X124107265Y-104456432D01*
X123920858Y-104586954D01*
X123759954Y-104747858D01*
X123629432Y-104934265D01*
X123629431Y-104934267D01*
X123533261Y-105140502D01*
X123533258Y-105140511D01*
X123474366Y-105360302D01*
X123474364Y-105360313D01*
X123454532Y-105586998D01*
X123454532Y-105587001D01*
X123474364Y-105813686D01*
X123474366Y-105813697D01*
X123533258Y-106033488D01*
X123533261Y-106033497D01*
X123629431Y-106239732D01*
X123629432Y-106239734D01*
X123759954Y-106426141D01*
X123920858Y-106587045D01*
X123920861Y-106587047D01*
X124107266Y-106717568D01*
X124313504Y-106813739D01*
X124313509Y-106813740D01*
X124313511Y-106813741D01*
X124457136Y-106852225D01*
X124516797Y-106888590D01*
X124547326Y-106951437D01*
X124539031Y-107020812D01*
X124494546Y-107074690D01*
X124457136Y-107091775D01*
X124313511Y-107130258D01*
X124313502Y-107130261D01*
X124107267Y-107226431D01*
X124107265Y-107226432D01*
X123920858Y-107356954D01*
X123759954Y-107517858D01*
X123629432Y-107704265D01*
X123629431Y-107704267D01*
X123533261Y-107910502D01*
X123533258Y-107910511D01*
X123474366Y-108130302D01*
X123474364Y-108130313D01*
X123454532Y-108356998D01*
X123454532Y-108357001D01*
X123474364Y-108583686D01*
X123474366Y-108583697D01*
X123533258Y-108803488D01*
X123533261Y-108803497D01*
X123629431Y-109009732D01*
X123629432Y-109009734D01*
X123759954Y-109196141D01*
X123920858Y-109357045D01*
X123920861Y-109357047D01*
X124107266Y-109487568D01*
X124313504Y-109583739D01*
X124313509Y-109583740D01*
X124313511Y-109583741D01*
X124457136Y-109622225D01*
X124516797Y-109658590D01*
X124547326Y-109721437D01*
X124539031Y-109790812D01*
X124494546Y-109844690D01*
X124457136Y-109861775D01*
X124313511Y-109900258D01*
X124313502Y-109900261D01*
X124107267Y-109996431D01*
X124107265Y-109996432D01*
X123920858Y-110126954D01*
X123759954Y-110287858D01*
X123629432Y-110474265D01*
X123629431Y-110474267D01*
X123533261Y-110680502D01*
X123533258Y-110680511D01*
X123474366Y-110900302D01*
X123474364Y-110900313D01*
X123454532Y-111126998D01*
X123454532Y-111127001D01*
X123474364Y-111353686D01*
X123474366Y-111353697D01*
X123533258Y-111573488D01*
X123533261Y-111573497D01*
X123629431Y-111779732D01*
X123629432Y-111779734D01*
X123759954Y-111966141D01*
X123920858Y-112127045D01*
X123920861Y-112127047D01*
X124107266Y-112257568D01*
X124313504Y-112353739D01*
X124313509Y-112353740D01*
X124313511Y-112353741D01*
X124457136Y-112392225D01*
X124516797Y-112428590D01*
X124547326Y-112491437D01*
X124539031Y-112560812D01*
X124494546Y-112614690D01*
X124457136Y-112631775D01*
X124313511Y-112670258D01*
X124313502Y-112670261D01*
X124107267Y-112766431D01*
X124107265Y-112766432D01*
X123920858Y-112896954D01*
X123759954Y-113057858D01*
X123629432Y-113244265D01*
X123629431Y-113244267D01*
X123533261Y-113450502D01*
X123533258Y-113450511D01*
X123474366Y-113670302D01*
X123474364Y-113670313D01*
X123454532Y-113896998D01*
X123454532Y-113897001D01*
X123474364Y-114123686D01*
X123474366Y-114123697D01*
X123533258Y-114343488D01*
X123533261Y-114343497D01*
X123629431Y-114549732D01*
X123629432Y-114549734D01*
X123759954Y-114736141D01*
X123920858Y-114897045D01*
X123920861Y-114897047D01*
X124107266Y-115027568D01*
X124313504Y-115123739D01*
X124533308Y-115182635D01*
X124695230Y-115196801D01*
X124759998Y-115202468D01*
X124760000Y-115202468D01*
X124760002Y-115202468D01*
X124816673Y-115197509D01*
X124986692Y-115182635D01*
X125206496Y-115123739D01*
X125412734Y-115027568D01*
X125599139Y-114897047D01*
X125760047Y-114736139D01*
X125890568Y-114549734D01*
X125986739Y-114343496D01*
X126045635Y-114123692D01*
X126065468Y-113897000D01*
X126065107Y-113892878D01*
X126056775Y-113797635D01*
X126045635Y-113670308D01*
X125986739Y-113450504D01*
X125890568Y-113244266D01*
X125760047Y-113057861D01*
X125760045Y-113057858D01*
X125599141Y-112896954D01*
X125412734Y-112766432D01*
X125412732Y-112766431D01*
X125206497Y-112670261D01*
X125206488Y-112670258D01*
X125083966Y-112637429D01*
X125062862Y-112631774D01*
X125003202Y-112595410D01*
X124972673Y-112532563D01*
X124980968Y-112463188D01*
X125025453Y-112409310D01*
X125062862Y-112392225D01*
X125206496Y-112353739D01*
X125412734Y-112257568D01*
X125599139Y-112127047D01*
X125760047Y-111966139D01*
X125890568Y-111779734D01*
X125986739Y-111573496D01*
X126045635Y-111353692D01*
X126065468Y-111127000D01*
X126061197Y-111078188D01*
X126055809Y-111016596D01*
X126045635Y-110900308D01*
X125986739Y-110680504D01*
X125890568Y-110474266D01*
X125760047Y-110287861D01*
X125760045Y-110287858D01*
X125599141Y-110126954D01*
X125412734Y-109996432D01*
X125412732Y-109996431D01*
X125206497Y-109900261D01*
X125206488Y-109900258D01*
X125083966Y-109867429D01*
X125062862Y-109861774D01*
X125003202Y-109825410D01*
X124972673Y-109762563D01*
X124980968Y-109693188D01*
X125025453Y-109639310D01*
X125062862Y-109622225D01*
X125206496Y-109583739D01*
X125412734Y-109487568D01*
X125599139Y-109357047D01*
X125760047Y-109196139D01*
X125890568Y-109009734D01*
X125986739Y-108803496D01*
X126045635Y-108583692D01*
X126065468Y-108357000D01*
X126061197Y-108308188D01*
X126045635Y-108130313D01*
X126045635Y-108130308D01*
X125986739Y-107910504D01*
X125890568Y-107704266D01*
X125760047Y-107517861D01*
X125760045Y-107517858D01*
X125599141Y-107356954D01*
X125412734Y-107226432D01*
X125412732Y-107226431D01*
X125206497Y-107130261D01*
X125206488Y-107130258D01*
X125083966Y-107097429D01*
X125062862Y-107091774D01*
X125003202Y-107055410D01*
X124972673Y-106992563D01*
X124980968Y-106923188D01*
X125025453Y-106869310D01*
X125062862Y-106852225D01*
X125206496Y-106813739D01*
X125412734Y-106717568D01*
X125599139Y-106587047D01*
X125760047Y-106426139D01*
X125890568Y-106239734D01*
X125986739Y-106033496D01*
X126045635Y-105813692D01*
X126065468Y-105587000D01*
X126061197Y-105538188D01*
X126058171Y-105503590D01*
X126045635Y-105360308D01*
X125986739Y-105140504D01*
X125890568Y-104934266D01*
X125760047Y-104747861D01*
X125760045Y-104747858D01*
X125599141Y-104586954D01*
X125412734Y-104456432D01*
X125412732Y-104456431D01*
X125206497Y-104360261D01*
X125206488Y-104360258D01*
X125083966Y-104327429D01*
X125062862Y-104321774D01*
X125003202Y-104285410D01*
X124972673Y-104222563D01*
X124980968Y-104153188D01*
X125025453Y-104099310D01*
X125062862Y-104082225D01*
X125206496Y-104043739D01*
X125412734Y-103947568D01*
X125599139Y-103817047D01*
X125760047Y-103656139D01*
X125890568Y-103469734D01*
X125986739Y-103263496D01*
X126045635Y-103043692D01*
X126065468Y-102817000D01*
X126061197Y-102768188D01*
X126048991Y-102628666D01*
X126045635Y-102590308D01*
X125986739Y-102370504D01*
X125890568Y-102164266D01*
X125792839Y-102024693D01*
X125760045Y-101977858D01*
X125599141Y-101816954D01*
X125412734Y-101686432D01*
X125412732Y-101686431D01*
X125206497Y-101590261D01*
X125206488Y-101590258D01*
X125083966Y-101557429D01*
X125062862Y-101551774D01*
X125003202Y-101515410D01*
X124972673Y-101452563D01*
X124980968Y-101383188D01*
X125025453Y-101329310D01*
X125062862Y-101312225D01*
X125206496Y-101273739D01*
X125412734Y-101177568D01*
X125599139Y-101047047D01*
X125760047Y-100886139D01*
X125890568Y-100699734D01*
X125986739Y-100493496D01*
X126045635Y-100273692D01*
X126065468Y-100047000D01*
X126061197Y-99998188D01*
X126049895Y-99868998D01*
X126045635Y-99820308D01*
X125986739Y-99600504D01*
X125890568Y-99394266D01*
X125760047Y-99207861D01*
X125760045Y-99207858D01*
X125599141Y-99046954D01*
X125412734Y-98916432D01*
X125412732Y-98916431D01*
X125206497Y-98820261D01*
X125206488Y-98820258D01*
X125083868Y-98787403D01*
X125062862Y-98781774D01*
X125003202Y-98745410D01*
X124972673Y-98682563D01*
X124980968Y-98613188D01*
X125025453Y-98559310D01*
X125062862Y-98542225D01*
X125206496Y-98503739D01*
X125412734Y-98407568D01*
X125566465Y-98299924D01*
X125632671Y-98277598D01*
X125637588Y-98277500D01*
X131006300Y-98277500D01*
X131073339Y-98297185D01*
X131119094Y-98349989D01*
X131130300Y-98401500D01*
X131130300Y-120539817D01*
X131110615Y-120606856D01*
X131093981Y-120627498D01*
X125600220Y-126121259D01*
X125600218Y-126121261D01*
X125530538Y-126190940D01*
X125460859Y-126260619D01*
X125351371Y-126424479D01*
X125351364Y-126424492D01*
X125275950Y-126606560D01*
X125275947Y-126606570D01*
X125237500Y-126799856D01*
X125237500Y-128219097D01*
X125217815Y-128286136D01*
X125165011Y-128331891D01*
X125095853Y-128341835D01*
X125066049Y-128333659D01*
X125061028Y-128331579D01*
X125033165Y-128320038D01*
X124979836Y-128297949D01*
X124979832Y-128297948D01*
X124979828Y-128297946D01*
X124883188Y-128278724D01*
X124786544Y-128259500D01*
X124786541Y-128259500D01*
X117877427Y-128259500D01*
X117877423Y-128259500D01*
X117780780Y-128278724D01*
X117684135Y-128297947D01*
X117684129Y-128297949D01*
X117630802Y-128320037D01*
X117630802Y-128320038D01*
X117602187Y-128331891D01*
X117502057Y-128373366D01*
X117502047Y-128373371D01*
X117338187Y-128482859D01*
X117268508Y-128552538D01*
X117198829Y-128622218D01*
X117198826Y-128622221D01*
X116384365Y-129436681D01*
X116323042Y-129470166D01*
X116285877Y-129472528D01*
X116078002Y-129454341D01*
X116077999Y-129454341D01*
X115842596Y-129474936D01*
X115842586Y-129474938D01*
X115614344Y-129536094D01*
X115614335Y-129536098D01*
X115400171Y-129635964D01*
X115400169Y-129635965D01*
X115206597Y-129771505D01*
X115039505Y-129938597D01*
X114903965Y-130132169D01*
X114903964Y-130132171D01*
X114804098Y-130346335D01*
X114804094Y-130346344D01*
X114742938Y-130574586D01*
X114742936Y-130574596D01*
X114722341Y-130809999D01*
X102862500Y-130809999D01*
X102862500Y-123951999D01*
X104498922Y-123951999D01*
X104498922Y-123952000D01*
X104519219Y-124339287D01*
X104579886Y-124722323D01*
X104579887Y-124722330D01*
X104680262Y-125096936D01*
X104819244Y-125458994D01*
X104995310Y-125804543D01*
X105206523Y-126129783D01*
X105206525Y-126129785D01*
X105415096Y-126387348D01*
X106909747Y-124892697D01*
X106983588Y-124994330D01*
X107161670Y-125172412D01*
X107263301Y-125246251D01*
X105768650Y-126740902D01*
X106026214Y-126949475D01*
X106026216Y-126949476D01*
X106351456Y-127160689D01*
X106697005Y-127336755D01*
X107059063Y-127475737D01*
X107433669Y-127576112D01*
X107433676Y-127576113D01*
X107816712Y-127636780D01*
X108203999Y-127657078D01*
X108204001Y-127657078D01*
X108591287Y-127636780D01*
X108974323Y-127576113D01*
X108974330Y-127576112D01*
X109348936Y-127475737D01*
X109710994Y-127336755D01*
X110056543Y-127160689D01*
X110381771Y-126949484D01*
X110381784Y-126949474D01*
X110639348Y-126740902D01*
X109144698Y-125246252D01*
X109246330Y-125172412D01*
X109424412Y-124994330D01*
X109498252Y-124892698D01*
X110992902Y-126387348D01*
X111201474Y-126129784D01*
X111201484Y-126129771D01*
X111412689Y-125804543D01*
X111588755Y-125458994D01*
X111727737Y-125096936D01*
X111828112Y-124722330D01*
X111828113Y-124722323D01*
X111888780Y-124339287D01*
X111909078Y-123952000D01*
X111909078Y-123951999D01*
X111888780Y-123564712D01*
X111828113Y-123181676D01*
X111828112Y-123181669D01*
X111727737Y-122807063D01*
X111588755Y-122445005D01*
X111412689Y-122099456D01*
X111201476Y-121774216D01*
X111201475Y-121774214D01*
X110992902Y-121516650D01*
X109498251Y-123011301D01*
X109424412Y-122909670D01*
X109246330Y-122731588D01*
X109144698Y-122657748D01*
X110639349Y-121163096D01*
X110381785Y-120954525D01*
X110381783Y-120954523D01*
X110185405Y-120826994D01*
X120835057Y-120826994D01*
X120835057Y-120827005D01*
X120854807Y-121140942D01*
X120854808Y-121140949D01*
X120913755Y-121449958D01*
X121010963Y-121749132D01*
X121010965Y-121749137D01*
X121144900Y-122033761D01*
X121144903Y-122033767D01*
X121313452Y-122299359D01*
X121404286Y-122409158D01*
X122045747Y-121767697D01*
X122119588Y-121869330D01*
X122297670Y-122047412D01*
X122399300Y-122121251D01*
X121754972Y-122765579D01*
X121997780Y-122941990D01*
X121997790Y-122941996D01*
X122273447Y-123093540D01*
X122273455Y-123093544D01*
X122565926Y-123209340D01*
X122870620Y-123287573D01*
X122870629Y-123287575D01*
X123182701Y-123326999D01*
X123182715Y-123327000D01*
X123497285Y-123327000D01*
X123497298Y-123326999D01*
X123809370Y-123287575D01*
X123809379Y-123287573D01*
X124114073Y-123209340D01*
X124406544Y-123093544D01*
X124406552Y-123093540D01*
X124682203Y-122942000D01*
X124682214Y-122941993D01*
X124925025Y-122765579D01*
X124925026Y-122765579D01*
X124280698Y-122121251D01*
X124382330Y-122047412D01*
X124560412Y-121869330D01*
X124634252Y-121767698D01*
X125275712Y-122409158D01*
X125366544Y-122299364D01*
X125535096Y-122033767D01*
X125535099Y-122033761D01*
X125669034Y-121749137D01*
X125669036Y-121749132D01*
X125766244Y-121449958D01*
X125825191Y-121140949D01*
X125825192Y-121140942D01*
X125844943Y-120827005D01*
X125844943Y-120826994D01*
X125825192Y-120513057D01*
X125825191Y-120513050D01*
X125766244Y-120204041D01*
X125669036Y-119904867D01*
X125669034Y-119904862D01*
X125535099Y-119620238D01*
X125535096Y-119620232D01*
X125366544Y-119354635D01*
X125275712Y-119244839D01*
X124634250Y-119886300D01*
X124560412Y-119784670D01*
X124382330Y-119606588D01*
X124280697Y-119532747D01*
X124925026Y-118888419D01*
X124682219Y-118712009D01*
X124682209Y-118712003D01*
X124406552Y-118560459D01*
X124406544Y-118560455D01*
X124114073Y-118444659D01*
X123809379Y-118366426D01*
X123809370Y-118366424D01*
X123497298Y-118327000D01*
X123182701Y-118327000D01*
X122870629Y-118366424D01*
X122870620Y-118366426D01*
X122565926Y-118444659D01*
X122273455Y-118560455D01*
X122273447Y-118560459D01*
X121997790Y-118712003D01*
X121997772Y-118712014D01*
X121754973Y-118888417D01*
X121754972Y-118888419D01*
X122399301Y-119532748D01*
X122297670Y-119606588D01*
X122119588Y-119784670D01*
X122045748Y-119886301D01*
X121404286Y-119244839D01*
X121313460Y-119354628D01*
X121313457Y-119354632D01*
X121144903Y-119620232D01*
X121144900Y-119620238D01*
X121010965Y-119904862D01*
X121010963Y-119904867D01*
X120913755Y-120204041D01*
X120854808Y-120513050D01*
X120854807Y-120513057D01*
X120835057Y-120826994D01*
X110185405Y-120826994D01*
X110056543Y-120743310D01*
X109710994Y-120567244D01*
X109348936Y-120428262D01*
X108974330Y-120327887D01*
X108974323Y-120327886D01*
X108591287Y-120267219D01*
X108204001Y-120246922D01*
X108203999Y-120246922D01*
X107816712Y-120267219D01*
X107433676Y-120327886D01*
X107433669Y-120327887D01*
X107059063Y-120428262D01*
X106697005Y-120567244D01*
X106351456Y-120743310D01*
X106026206Y-120954531D01*
X105768649Y-121163095D01*
X105768649Y-121163096D01*
X107263301Y-122657748D01*
X107161670Y-122731588D01*
X106983588Y-122909670D01*
X106909748Y-123011301D01*
X105415096Y-121516649D01*
X105415095Y-121516649D01*
X105206531Y-121774206D01*
X104995310Y-122099456D01*
X104819244Y-122445005D01*
X104680262Y-122807063D01*
X104579887Y-123181669D01*
X104579886Y-123181676D01*
X104519219Y-123564712D01*
X104498922Y-123951999D01*
X102862500Y-123951999D01*
X102862500Y-82041998D01*
X120614532Y-82041998D01*
X120614532Y-82042001D01*
X120634364Y-82268686D01*
X120634366Y-82268697D01*
X120693258Y-82488488D01*
X120693261Y-82488497D01*
X120789431Y-82694732D01*
X120789432Y-82694734D01*
X120919954Y-82881141D01*
X121080858Y-83042045D01*
X121080861Y-83042047D01*
X121267266Y-83172568D01*
X121473504Y-83268739D01*
X121473509Y-83268740D01*
X121473511Y-83268741D01*
X121617136Y-83307225D01*
X121676797Y-83343590D01*
X121707326Y-83406437D01*
X121699031Y-83475812D01*
X121654546Y-83529690D01*
X121617136Y-83546775D01*
X121473511Y-83585258D01*
X121473502Y-83585261D01*
X121267267Y-83681431D01*
X121267265Y-83681432D01*
X121080858Y-83811954D01*
X120919954Y-83972858D01*
X120789432Y-84159265D01*
X120789431Y-84159267D01*
X120693261Y-84365502D01*
X120693258Y-84365511D01*
X120634366Y-84585302D01*
X120634364Y-84585313D01*
X120614532Y-84811998D01*
X120614532Y-84812001D01*
X120634364Y-85038686D01*
X120634366Y-85038697D01*
X120693258Y-85258488D01*
X120693261Y-85258497D01*
X120789431Y-85464732D01*
X120789432Y-85464734D01*
X120919954Y-85651141D01*
X121080858Y-85812045D01*
X121080861Y-85812047D01*
X121267266Y-85942568D01*
X121473504Y-86038739D01*
X121473509Y-86038740D01*
X121473511Y-86038741D01*
X121617136Y-86077225D01*
X121676797Y-86113590D01*
X121707326Y-86176437D01*
X121699031Y-86245812D01*
X121654546Y-86299690D01*
X121617136Y-86316775D01*
X121473511Y-86355258D01*
X121473502Y-86355261D01*
X121267267Y-86451431D01*
X121267265Y-86451432D01*
X121080858Y-86581954D01*
X120919954Y-86742858D01*
X120789432Y-86929265D01*
X120789431Y-86929267D01*
X120693261Y-87135502D01*
X120693258Y-87135511D01*
X120634366Y-87355302D01*
X120634364Y-87355313D01*
X120614532Y-87581998D01*
X120614532Y-87582001D01*
X120634364Y-87808686D01*
X120634366Y-87808697D01*
X120693258Y-88028488D01*
X120693261Y-88028497D01*
X120789431Y-88234732D01*
X120789432Y-88234734D01*
X120919954Y-88421141D01*
X121080858Y-88582045D01*
X121080861Y-88582047D01*
X121267266Y-88712568D01*
X121473504Y-88808739D01*
X121473509Y-88808740D01*
X121473511Y-88808741D01*
X121617136Y-88847225D01*
X121676797Y-88883590D01*
X121707326Y-88946437D01*
X121699031Y-89015812D01*
X121654546Y-89069690D01*
X121617136Y-89086775D01*
X121473511Y-89125258D01*
X121473502Y-89125261D01*
X121267267Y-89221431D01*
X121267265Y-89221432D01*
X121080858Y-89351954D01*
X120919954Y-89512858D01*
X120789432Y-89699265D01*
X120789431Y-89699267D01*
X120693261Y-89905502D01*
X120693258Y-89905511D01*
X120634366Y-90125302D01*
X120634364Y-90125313D01*
X120614532Y-90351998D01*
X120614532Y-90352001D01*
X120634364Y-90578686D01*
X120634366Y-90578697D01*
X120693258Y-90798488D01*
X120693261Y-90798497D01*
X120789431Y-91004732D01*
X120789432Y-91004734D01*
X120919954Y-91191141D01*
X121080858Y-91352045D01*
X121080861Y-91352047D01*
X121267266Y-91482568D01*
X121473504Y-91578739D01*
X121473509Y-91578740D01*
X121473511Y-91578741D01*
X121617136Y-91617225D01*
X121676797Y-91653590D01*
X121707326Y-91716437D01*
X121699031Y-91785812D01*
X121654546Y-91839690D01*
X121617136Y-91856775D01*
X121473511Y-91895258D01*
X121473502Y-91895261D01*
X121267267Y-91991431D01*
X121267265Y-91991432D01*
X121080858Y-92121954D01*
X120919954Y-92282858D01*
X120789432Y-92469265D01*
X120789431Y-92469267D01*
X120693261Y-92675502D01*
X120693258Y-92675511D01*
X120634366Y-92895302D01*
X120634364Y-92895313D01*
X120614532Y-93121998D01*
X120614532Y-93122001D01*
X120634364Y-93348686D01*
X120634366Y-93348697D01*
X120693258Y-93568488D01*
X120693261Y-93568497D01*
X120789431Y-93774732D01*
X120789432Y-93774734D01*
X120919954Y-93961141D01*
X121080858Y-94122045D01*
X121080861Y-94122047D01*
X121267266Y-94252568D01*
X121473504Y-94348739D01*
X121473509Y-94348740D01*
X121473511Y-94348741D01*
X121617136Y-94387225D01*
X121676797Y-94423590D01*
X121707326Y-94486437D01*
X121699031Y-94555812D01*
X121654546Y-94609690D01*
X121617136Y-94626775D01*
X121473511Y-94665258D01*
X121473502Y-94665261D01*
X121267267Y-94761431D01*
X121267265Y-94761432D01*
X121080858Y-94891954D01*
X120919954Y-95052858D01*
X120789432Y-95239265D01*
X120789431Y-95239267D01*
X120693261Y-95445502D01*
X120693258Y-95445511D01*
X120634366Y-95665302D01*
X120634364Y-95665313D01*
X120614532Y-95891998D01*
X120614532Y-95892001D01*
X120634364Y-96118686D01*
X120634366Y-96118697D01*
X120693258Y-96338488D01*
X120693261Y-96338497D01*
X120789431Y-96544732D01*
X120789432Y-96544734D01*
X120919954Y-96731141D01*
X121080858Y-96892045D01*
X121080861Y-96892047D01*
X121267266Y-97022568D01*
X121473504Y-97118739D01*
X121473509Y-97118740D01*
X121473511Y-97118741D01*
X121617136Y-97157225D01*
X121676797Y-97193590D01*
X121707326Y-97256437D01*
X121699031Y-97325812D01*
X121654546Y-97379690D01*
X121617136Y-97396775D01*
X121473511Y-97435258D01*
X121473502Y-97435261D01*
X121267267Y-97531431D01*
X121267265Y-97531432D01*
X121080858Y-97661954D01*
X120919954Y-97822858D01*
X120789432Y-98009265D01*
X120789431Y-98009267D01*
X120693261Y-98215502D01*
X120693258Y-98215511D01*
X120634366Y-98435302D01*
X120634364Y-98435313D01*
X120614532Y-98661998D01*
X120614532Y-98662001D01*
X120634364Y-98888686D01*
X120634366Y-98888697D01*
X120693258Y-99108488D01*
X120693261Y-99108497D01*
X120789431Y-99314732D01*
X120789432Y-99314734D01*
X120919954Y-99501141D01*
X121080858Y-99662045D01*
X121080861Y-99662047D01*
X121267266Y-99792568D01*
X121473504Y-99888739D01*
X121473509Y-99888740D01*
X121473511Y-99888741D01*
X121617136Y-99927225D01*
X121676797Y-99963590D01*
X121707326Y-100026437D01*
X121699031Y-100095812D01*
X121654546Y-100149690D01*
X121617136Y-100166775D01*
X121473511Y-100205258D01*
X121473502Y-100205261D01*
X121267267Y-100301431D01*
X121267265Y-100301432D01*
X121080858Y-100431954D01*
X120919954Y-100592858D01*
X120789432Y-100779265D01*
X120789431Y-100779267D01*
X120693261Y-100985502D01*
X120693258Y-100985511D01*
X120634366Y-101205302D01*
X120634364Y-101205313D01*
X120614532Y-101431998D01*
X120614532Y-101432001D01*
X120634364Y-101658686D01*
X120634366Y-101658697D01*
X120693258Y-101878488D01*
X120693261Y-101878497D01*
X120789431Y-102084732D01*
X120789432Y-102084734D01*
X120919954Y-102271141D01*
X121080858Y-102432045D01*
X121080861Y-102432047D01*
X121267266Y-102562568D01*
X121473504Y-102658739D01*
X121473509Y-102658740D01*
X121473511Y-102658741D01*
X121617136Y-102697225D01*
X121676797Y-102733590D01*
X121707326Y-102796437D01*
X121699031Y-102865812D01*
X121654546Y-102919690D01*
X121617136Y-102936775D01*
X121473511Y-102975258D01*
X121473502Y-102975261D01*
X121267267Y-103071431D01*
X121267265Y-103071432D01*
X121080858Y-103201954D01*
X120919954Y-103362858D01*
X120789432Y-103549265D01*
X120789431Y-103549267D01*
X120693261Y-103755502D01*
X120693258Y-103755511D01*
X120634366Y-103975302D01*
X120634364Y-103975313D01*
X120614532Y-104201998D01*
X120614532Y-104202001D01*
X120634364Y-104428686D01*
X120634366Y-104428697D01*
X120693258Y-104648488D01*
X120693261Y-104648497D01*
X120789431Y-104854732D01*
X120789432Y-104854734D01*
X120919954Y-105041141D01*
X121080858Y-105202045D01*
X121127693Y-105234839D01*
X121267266Y-105332568D01*
X121473504Y-105428739D01*
X121473509Y-105428740D01*
X121473511Y-105428741D01*
X121617136Y-105467225D01*
X121676797Y-105503590D01*
X121707326Y-105566437D01*
X121699031Y-105635812D01*
X121654546Y-105689690D01*
X121617136Y-105706775D01*
X121473511Y-105745258D01*
X121473502Y-105745261D01*
X121267267Y-105841431D01*
X121267265Y-105841432D01*
X121080858Y-105971954D01*
X120919954Y-106132858D01*
X120789432Y-106319265D01*
X120789431Y-106319267D01*
X120693261Y-106525502D01*
X120693258Y-106525511D01*
X120634366Y-106745302D01*
X120634364Y-106745313D01*
X120614532Y-106971998D01*
X120614532Y-106972001D01*
X120634364Y-107198686D01*
X120634366Y-107198697D01*
X120693258Y-107418488D01*
X120693261Y-107418497D01*
X120789431Y-107624732D01*
X120789432Y-107624734D01*
X120919954Y-107811141D01*
X121080858Y-107972045D01*
X121080861Y-107972047D01*
X121267266Y-108102568D01*
X121473504Y-108198739D01*
X121473509Y-108198740D01*
X121473511Y-108198741D01*
X121617136Y-108237225D01*
X121676797Y-108273590D01*
X121707326Y-108336437D01*
X121699031Y-108405812D01*
X121654546Y-108459690D01*
X121617136Y-108476775D01*
X121473511Y-108515258D01*
X121473502Y-108515261D01*
X121267267Y-108611431D01*
X121267265Y-108611432D01*
X121080858Y-108741954D01*
X120919954Y-108902858D01*
X120789432Y-109089265D01*
X120789431Y-109089267D01*
X120693261Y-109295502D01*
X120693258Y-109295511D01*
X120634366Y-109515302D01*
X120634364Y-109515313D01*
X120614532Y-109741998D01*
X120614532Y-109742001D01*
X120634364Y-109968686D01*
X120634366Y-109968697D01*
X120693258Y-110188488D01*
X120693261Y-110188497D01*
X120789431Y-110394732D01*
X120789432Y-110394734D01*
X120919954Y-110581141D01*
X121080858Y-110742045D01*
X121080861Y-110742047D01*
X121267266Y-110872568D01*
X121473504Y-110968739D01*
X121473509Y-110968740D01*
X121473511Y-110968741D01*
X121617136Y-111007225D01*
X121676797Y-111043590D01*
X121707326Y-111106437D01*
X121699031Y-111175812D01*
X121654546Y-111229690D01*
X121617136Y-111246775D01*
X121473511Y-111285258D01*
X121473502Y-111285261D01*
X121267267Y-111381431D01*
X121267265Y-111381432D01*
X121080858Y-111511954D01*
X120919954Y-111672858D01*
X120789432Y-111859265D01*
X120789431Y-111859267D01*
X120693261Y-112065502D01*
X120693258Y-112065511D01*
X120634366Y-112285302D01*
X120634364Y-112285313D01*
X120614532Y-112511998D01*
X120614532Y-112512001D01*
X120634364Y-112738686D01*
X120634366Y-112738697D01*
X120693258Y-112958488D01*
X120693261Y-112958497D01*
X120789431Y-113164732D01*
X120789432Y-113164734D01*
X120919954Y-113351141D01*
X121080858Y-113512045D01*
X121080861Y-113512047D01*
X121267266Y-113642568D01*
X121473504Y-113738739D01*
X121473509Y-113738740D01*
X121473511Y-113738741D01*
X121477344Y-113739768D01*
X121693308Y-113797635D01*
X121855230Y-113811801D01*
X121919998Y-113817468D01*
X121920000Y-113817468D01*
X121920002Y-113817468D01*
X121976673Y-113812509D01*
X122146692Y-113797635D01*
X122366496Y-113738739D01*
X122572734Y-113642568D01*
X122759139Y-113512047D01*
X122920047Y-113351139D01*
X123050568Y-113164734D01*
X123146739Y-112958496D01*
X123205635Y-112738692D01*
X123225468Y-112512000D01*
X123224374Y-112499500D01*
X123206089Y-112290498D01*
X123205635Y-112285308D01*
X123146739Y-112065504D01*
X123050568Y-111859266D01*
X122920047Y-111672861D01*
X122920045Y-111672858D01*
X122759141Y-111511954D01*
X122572734Y-111381432D01*
X122572732Y-111381431D01*
X122366497Y-111285261D01*
X122366488Y-111285258D01*
X122242360Y-111251999D01*
X122222862Y-111246774D01*
X122163202Y-111210410D01*
X122132673Y-111147563D01*
X122140968Y-111078188D01*
X122185453Y-111024310D01*
X122222862Y-111007225D01*
X122366496Y-110968739D01*
X122572734Y-110872568D01*
X122759139Y-110742047D01*
X122920047Y-110581139D01*
X123050568Y-110394734D01*
X123146739Y-110188496D01*
X123205635Y-109968692D01*
X123225468Y-109742000D01*
X123221197Y-109693188D01*
X123205635Y-109515313D01*
X123205635Y-109515308D01*
X123146739Y-109295504D01*
X123050568Y-109089266D01*
X122920047Y-108902861D01*
X122920045Y-108902858D01*
X122759141Y-108741954D01*
X122572734Y-108611432D01*
X122572732Y-108611431D01*
X122366497Y-108515261D01*
X122366488Y-108515258D01*
X122243966Y-108482429D01*
X122222862Y-108476774D01*
X122163202Y-108440410D01*
X122132673Y-108377563D01*
X122140968Y-108308188D01*
X122185453Y-108254310D01*
X122222862Y-108237225D01*
X122366496Y-108198739D01*
X122572734Y-108102568D01*
X122759139Y-107972047D01*
X122920047Y-107811139D01*
X123050568Y-107624734D01*
X123146739Y-107418496D01*
X123205635Y-107198692D01*
X123225468Y-106972000D01*
X123224549Y-106961500D01*
X123205635Y-106745313D01*
X123205635Y-106745308D01*
X123146739Y-106525504D01*
X123050568Y-106319266D01*
X122920047Y-106132861D01*
X122920045Y-106132858D01*
X122759141Y-105971954D01*
X122572734Y-105841432D01*
X122572732Y-105841431D01*
X122366497Y-105745261D01*
X122366488Y-105745258D01*
X122228693Y-105708337D01*
X122222862Y-105706774D01*
X122163202Y-105670410D01*
X122132673Y-105607563D01*
X122140968Y-105538188D01*
X122185453Y-105484310D01*
X122222862Y-105467225D01*
X122366496Y-105428739D01*
X122572734Y-105332568D01*
X122759139Y-105202047D01*
X122920047Y-105041139D01*
X123050568Y-104854734D01*
X123146739Y-104648496D01*
X123205635Y-104428692D01*
X123225468Y-104202000D01*
X123221197Y-104153188D01*
X123205635Y-103975313D01*
X123205635Y-103975308D01*
X123146739Y-103755504D01*
X123050568Y-103549266D01*
X122920047Y-103362861D01*
X122920045Y-103362858D01*
X122759141Y-103201954D01*
X122572734Y-103071432D01*
X122572732Y-103071431D01*
X122366497Y-102975261D01*
X122366488Y-102975258D01*
X122243966Y-102942429D01*
X122222862Y-102936774D01*
X122163202Y-102900410D01*
X122132673Y-102837563D01*
X122140968Y-102768188D01*
X122185453Y-102714310D01*
X122222862Y-102697225D01*
X122366496Y-102658739D01*
X122572734Y-102562568D01*
X122759139Y-102432047D01*
X122920047Y-102271139D01*
X123050568Y-102084734D01*
X123146739Y-101878496D01*
X123205635Y-101658692D01*
X123225468Y-101432000D01*
X123221197Y-101383188D01*
X123205635Y-101205313D01*
X123205635Y-101205308D01*
X123157873Y-101027056D01*
X123146741Y-100985511D01*
X123146738Y-100985502D01*
X123086628Y-100856597D01*
X123050568Y-100779266D01*
X122920047Y-100592861D01*
X122920045Y-100592858D01*
X122759141Y-100431954D01*
X122572734Y-100301432D01*
X122572732Y-100301431D01*
X122366497Y-100205261D01*
X122366488Y-100205258D01*
X122243966Y-100172429D01*
X122222862Y-100166774D01*
X122163202Y-100130410D01*
X122132673Y-100067563D01*
X122140968Y-99998188D01*
X122185453Y-99944310D01*
X122222862Y-99927225D01*
X122366496Y-99888739D01*
X122572734Y-99792568D01*
X122759139Y-99662047D01*
X122920047Y-99501139D01*
X123050568Y-99314734D01*
X123146739Y-99108496D01*
X123205635Y-98888692D01*
X123225468Y-98662000D01*
X123221197Y-98613188D01*
X123205635Y-98435313D01*
X123205635Y-98435308D01*
X123146739Y-98215504D01*
X123050568Y-98009266D01*
X122940228Y-97851683D01*
X122920045Y-97822858D01*
X122759141Y-97661954D01*
X122572734Y-97531432D01*
X122572732Y-97531431D01*
X122366497Y-97435261D01*
X122366488Y-97435258D01*
X122243966Y-97402429D01*
X122222862Y-97396774D01*
X122163202Y-97360410D01*
X122132673Y-97297563D01*
X122140968Y-97228188D01*
X122185453Y-97174310D01*
X122222862Y-97157225D01*
X122366496Y-97118739D01*
X122572734Y-97022568D01*
X122759139Y-96892047D01*
X122920047Y-96731139D01*
X123050568Y-96544734D01*
X123146739Y-96338496D01*
X123205635Y-96118692D01*
X123225468Y-95892000D01*
X123221197Y-95843188D01*
X123215371Y-95776592D01*
X123205635Y-95665308D01*
X123146739Y-95445504D01*
X123050568Y-95239266D01*
X122920047Y-95052861D01*
X122920045Y-95052858D01*
X122759141Y-94891954D01*
X122572734Y-94761432D01*
X122572732Y-94761431D01*
X122366497Y-94665261D01*
X122366488Y-94665258D01*
X122243966Y-94632429D01*
X122222862Y-94626774D01*
X122163202Y-94590410D01*
X122132673Y-94527563D01*
X122140968Y-94458188D01*
X122185453Y-94404310D01*
X122222862Y-94387225D01*
X122366496Y-94348739D01*
X122572734Y-94252568D01*
X122759139Y-94122047D01*
X122920047Y-93961139D01*
X123050568Y-93774734D01*
X123146739Y-93568496D01*
X123205635Y-93348692D01*
X123225468Y-93122000D01*
X123221197Y-93073188D01*
X123215524Y-93008337D01*
X123205635Y-92895308D01*
X123146739Y-92675504D01*
X123050568Y-92469266D01*
X122920047Y-92282861D01*
X122920045Y-92282858D01*
X122759141Y-92121954D01*
X122572734Y-91991432D01*
X122572732Y-91991431D01*
X122366497Y-91895261D01*
X122366488Y-91895258D01*
X122243966Y-91862429D01*
X122222862Y-91856774D01*
X122163202Y-91820410D01*
X122132673Y-91757563D01*
X122140968Y-91688188D01*
X122185453Y-91634310D01*
X122222862Y-91617225D01*
X122366496Y-91578739D01*
X122572734Y-91482568D01*
X122759139Y-91352047D01*
X122920047Y-91191139D01*
X123050568Y-91004734D01*
X123146739Y-90798496D01*
X123205635Y-90578692D01*
X123225468Y-90352000D01*
X123221197Y-90303188D01*
X123205635Y-90125313D01*
X123205635Y-90125308D01*
X123146739Y-89905504D01*
X123050568Y-89699266D01*
X122920047Y-89512861D01*
X122920045Y-89512858D01*
X122759141Y-89351954D01*
X122572734Y-89221432D01*
X122572732Y-89221431D01*
X122366497Y-89125261D01*
X122366488Y-89125258D01*
X122243966Y-89092429D01*
X122222862Y-89086774D01*
X122163202Y-89050410D01*
X122132673Y-88987563D01*
X122140968Y-88918188D01*
X122185453Y-88864310D01*
X122222862Y-88847225D01*
X122366496Y-88808739D01*
X122572734Y-88712568D01*
X122759139Y-88582047D01*
X122920047Y-88421139D01*
X123050568Y-88234734D01*
X123146739Y-88028496D01*
X123205635Y-87808692D01*
X123225468Y-87582000D01*
X123205635Y-87355308D01*
X123155714Y-87168998D01*
X123146741Y-87135511D01*
X123146738Y-87135502D01*
X123050568Y-86929267D01*
X123050567Y-86929265D01*
X123023422Y-86890498D01*
X122920047Y-86742861D01*
X122920045Y-86742858D01*
X122759141Y-86581954D01*
X122572734Y-86451432D01*
X122572732Y-86451431D01*
X122366497Y-86355261D01*
X122366488Y-86355258D01*
X122243966Y-86322429D01*
X122222862Y-86316774D01*
X122163202Y-86280410D01*
X122132673Y-86217563D01*
X122140968Y-86148188D01*
X122185453Y-86094310D01*
X122222862Y-86077225D01*
X122366496Y-86038739D01*
X122572734Y-85942568D01*
X122759139Y-85812047D01*
X122920047Y-85651139D01*
X123050568Y-85464734D01*
X123146739Y-85258496D01*
X123205635Y-85038692D01*
X123225468Y-84812000D01*
X123221197Y-84763188D01*
X123205635Y-84585313D01*
X123205635Y-84585308D01*
X123146739Y-84365504D01*
X123050568Y-84159266D01*
X122920047Y-83972861D01*
X122920045Y-83972858D01*
X122759141Y-83811954D01*
X122572734Y-83681432D01*
X122572732Y-83681431D01*
X122366497Y-83585261D01*
X122366488Y-83585258D01*
X122243966Y-83552429D01*
X122222862Y-83546774D01*
X122163202Y-83510410D01*
X122132673Y-83447563D01*
X122140968Y-83378188D01*
X122185453Y-83324310D01*
X122222862Y-83307225D01*
X122366496Y-83268739D01*
X122572734Y-83172568D01*
X122759139Y-83042047D01*
X122920047Y-82881139D01*
X123050568Y-82694734D01*
X123146739Y-82488496D01*
X123205635Y-82268692D01*
X123225468Y-82042000D01*
X123224373Y-82029489D01*
X123218044Y-81957145D01*
X123205635Y-81815308D01*
X123146739Y-81595504D01*
X123050568Y-81389266D01*
X122920047Y-81202861D01*
X122920045Y-81202858D01*
X122759141Y-81041954D01*
X122572734Y-80911432D01*
X122572732Y-80911431D01*
X122366497Y-80815261D01*
X122366488Y-80815258D01*
X122146697Y-80756366D01*
X122146693Y-80756365D01*
X122146692Y-80756365D01*
X122146691Y-80756364D01*
X122146686Y-80756364D01*
X121920002Y-80736532D01*
X121919998Y-80736532D01*
X121693313Y-80756364D01*
X121693302Y-80756366D01*
X121473511Y-80815258D01*
X121473502Y-80815261D01*
X121267267Y-80911431D01*
X121267265Y-80911432D01*
X121080858Y-81041954D01*
X120919954Y-81202858D01*
X120789432Y-81389265D01*
X120789431Y-81389267D01*
X120693261Y-81595502D01*
X120693258Y-81595511D01*
X120634366Y-81815302D01*
X120634364Y-81815313D01*
X120614532Y-82041998D01*
X102862500Y-82041998D01*
X102862500Y-78231999D01*
X104498922Y-78231999D01*
X104498922Y-78232000D01*
X104519219Y-78619287D01*
X104579886Y-79002323D01*
X104579887Y-79002330D01*
X104680262Y-79376936D01*
X104819244Y-79738994D01*
X104995310Y-80084543D01*
X105206523Y-80409783D01*
X105206525Y-80409785D01*
X105415096Y-80667348D01*
X106909747Y-79172697D01*
X106983588Y-79274330D01*
X107161670Y-79452412D01*
X107263301Y-79526251D01*
X105768650Y-81020902D01*
X106026214Y-81229475D01*
X106026216Y-81229476D01*
X106351456Y-81440689D01*
X106697005Y-81616755D01*
X107059063Y-81755737D01*
X107433669Y-81856112D01*
X107433676Y-81856113D01*
X107816712Y-81916780D01*
X108203999Y-81937078D01*
X108204001Y-81937078D01*
X108591287Y-81916780D01*
X108974323Y-81856113D01*
X108974330Y-81856112D01*
X109348936Y-81755737D01*
X109710994Y-81616755D01*
X110056543Y-81440689D01*
X110381771Y-81229484D01*
X110381784Y-81229474D01*
X110639348Y-81020902D01*
X109144698Y-79526252D01*
X109246330Y-79452412D01*
X109424412Y-79274330D01*
X109498252Y-79172698D01*
X110992902Y-80667348D01*
X111201474Y-80409784D01*
X111201484Y-80409771D01*
X111412689Y-80084543D01*
X111588755Y-79738994D01*
X111727737Y-79376936D01*
X111828112Y-79002330D01*
X111828113Y-79002323D01*
X111888780Y-78619287D01*
X111909078Y-78232000D01*
X111909078Y-78231999D01*
X111888780Y-77844712D01*
X111828113Y-77461676D01*
X111828112Y-77461669D01*
X111727737Y-77087063D01*
X111588755Y-76725005D01*
X111412689Y-76379456D01*
X111201476Y-76054216D01*
X111201475Y-76054214D01*
X110992902Y-75796650D01*
X109498251Y-77291301D01*
X109424412Y-77189670D01*
X109246330Y-77011588D01*
X109144698Y-76937748D01*
X110639349Y-75443096D01*
X110381785Y-75234525D01*
X110381783Y-75234523D01*
X110056543Y-75023310D01*
X109710994Y-74847244D01*
X109348936Y-74708262D01*
X108974330Y-74607887D01*
X108974323Y-74607886D01*
X108591287Y-74547219D01*
X108204001Y-74526922D01*
X108203999Y-74526922D01*
X107816712Y-74547219D01*
X107433676Y-74607886D01*
X107433669Y-74607887D01*
X107059063Y-74708262D01*
X106697005Y-74847244D01*
X106351456Y-75023310D01*
X106026206Y-75234531D01*
X105768649Y-75443095D01*
X105768649Y-75443096D01*
X107263301Y-76937748D01*
X107161670Y-77011588D01*
X106983588Y-77189670D01*
X106909748Y-77291301D01*
X105415096Y-75796649D01*
X105415095Y-75796649D01*
X105206531Y-76054206D01*
X104995310Y-76379456D01*
X104819244Y-76725005D01*
X104680262Y-77087063D01*
X104579887Y-77461669D01*
X104579886Y-77461676D01*
X104519219Y-77844712D01*
X104498922Y-78231999D01*
X102862500Y-78231999D01*
X102862500Y-73726994D01*
X120835057Y-73726994D01*
X120835057Y-73727005D01*
X120854807Y-74040942D01*
X120854808Y-74040949D01*
X120913755Y-74349958D01*
X121010963Y-74649132D01*
X121010965Y-74649137D01*
X121144900Y-74933761D01*
X121144903Y-74933767D01*
X121313452Y-75199359D01*
X121404286Y-75309158D01*
X122045747Y-74667697D01*
X122119588Y-74769330D01*
X122297670Y-74947412D01*
X122399300Y-75021251D01*
X121754972Y-75665579D01*
X121997780Y-75841990D01*
X121997790Y-75841996D01*
X122273447Y-75993540D01*
X122273455Y-75993544D01*
X122565926Y-76109340D01*
X122870620Y-76187573D01*
X122870629Y-76187575D01*
X123182701Y-76226999D01*
X123182715Y-76227000D01*
X123497285Y-76227000D01*
X123497298Y-76226999D01*
X123809370Y-76187575D01*
X123809379Y-76187573D01*
X124114073Y-76109340D01*
X124406544Y-75993544D01*
X124406552Y-75993540D01*
X124682203Y-75842000D01*
X124682214Y-75841993D01*
X124925025Y-75665579D01*
X124925026Y-75665579D01*
X124280698Y-75021251D01*
X124382330Y-74947412D01*
X124560412Y-74769330D01*
X124634252Y-74667698D01*
X125275712Y-75309158D01*
X125366544Y-75199364D01*
X125535096Y-74933767D01*
X125535099Y-74933761D01*
X125669034Y-74649137D01*
X125669036Y-74649132D01*
X125766244Y-74349958D01*
X125825191Y-74040949D01*
X125825192Y-74040942D01*
X125844943Y-73727005D01*
X125844943Y-73726994D01*
X125825192Y-73413057D01*
X125825191Y-73413050D01*
X125766244Y-73104041D01*
X125669036Y-72804867D01*
X125669034Y-72804862D01*
X125535099Y-72520238D01*
X125535096Y-72520232D01*
X125366544Y-72254635D01*
X125275712Y-72144839D01*
X124634250Y-72786300D01*
X124560412Y-72684670D01*
X124382330Y-72506588D01*
X124280697Y-72432747D01*
X124925026Y-71788419D01*
X124682219Y-71612009D01*
X124682209Y-71612003D01*
X124406552Y-71460459D01*
X124406544Y-71460455D01*
X124114073Y-71344659D01*
X123809379Y-71266426D01*
X123809370Y-71266424D01*
X123497298Y-71227000D01*
X123182701Y-71227000D01*
X122870629Y-71266424D01*
X122870620Y-71266426D01*
X122565926Y-71344659D01*
X122273455Y-71460455D01*
X122273447Y-71460459D01*
X121997790Y-71612003D01*
X121997772Y-71612014D01*
X121754973Y-71788417D01*
X121754972Y-71788419D01*
X122399301Y-72432748D01*
X122297670Y-72506588D01*
X122119588Y-72684670D01*
X122045748Y-72786301D01*
X121404286Y-72144839D01*
X121313460Y-72254628D01*
X121313457Y-72254632D01*
X121144903Y-72520232D01*
X121144900Y-72520238D01*
X121010965Y-72804862D01*
X121010963Y-72804867D01*
X120913755Y-73104041D01*
X120854808Y-73413050D01*
X120854807Y-73413057D01*
X120835057Y-73726994D01*
X102862500Y-73726994D01*
X102862500Y-63616500D01*
X102882185Y-63549461D01*
X102934989Y-63503706D01*
X102986500Y-63492500D01*
X165237500Y-63492500D01*
X165304539Y-63512185D01*
G37*
%TD.AperFunction*%
%TD*%
M02*
